G04 #@! TF.FileFunction,Soldermask,Bot*
%FSLAX46Y46*%
G04 Gerber Fmt 4.6, Leading zero omitted, Abs format (unit mm)*
G04 Created by KiCad (PCBNEW 4.0.6-e0-6349~53~ubuntu16.04.1) date Sat Jun 24 14:45:07 2017*
%MOMM*%
%LPD*%
G01*
G04 APERTURE LIST*
%ADD10C,0.100000*%
%ADD11C,2.600000*%
%ADD12C,0.600000*%
%ADD13R,2.100000X2.100000*%
%ADD14O,2.100000X2.100000*%
%ADD15R,2.200000X5.480000*%
%ADD16C,0.700000*%
G04 APERTURE END LIST*
D10*
D11*
X102500000Y-72500000D03*
D12*
X111600000Y-78100000D03*
X111500000Y-77600000D03*
X111100000Y-77200000D03*
X110800000Y-76800000D03*
X110800000Y-76200000D03*
X110800000Y-75600000D03*
X109200000Y-77300000D03*
X109200000Y-75600000D03*
X109200000Y-76200000D03*
X109200000Y-76800000D03*
X109300000Y-77800000D03*
X109700000Y-78300000D03*
X110100000Y-78700000D03*
X110500000Y-79200000D03*
X110500000Y-79800000D03*
X110500000Y-80400000D03*
X110800000Y-81100000D03*
X111000000Y-81600000D03*
X111400000Y-81200000D03*
D13*
X102000000Y-77500000D03*
D14*
X102000000Y-80040000D03*
X102000000Y-82580000D03*
X102000000Y-85120000D03*
D15*
X113000000Y-72660000D03*
D16*
X113000000Y-74700000D03*
X113000000Y-70700000D03*
X112500000Y-71700000D03*
X113500000Y-71700000D03*
X113000000Y-72700000D03*
X112500000Y-73700000D03*
X113500000Y-73700000D03*
X107000000Y-74700000D03*
X107000000Y-70700000D03*
X106500000Y-71700000D03*
X107500000Y-71700000D03*
X107000000Y-72700000D03*
X106500000Y-73700000D03*
X107500000Y-73700000D03*
D15*
X107000000Y-72660000D03*
D13*
X118100000Y-73500000D03*
D14*
X118100000Y-76040000D03*
X118100000Y-78580000D03*
X118100000Y-81120000D03*
X118100000Y-83660000D03*
X118100000Y-86200000D03*
D12*
X111800000Y-80700000D03*
M02*
