M48
;DRILL file {KiCad 4.0.6-e0-6349~53~ubuntu16.04.1} date Sat Jun 24 14:45:18 2017
;FORMAT={-:-/ absolute / inch / decimal}
FMAT,2
INCH,TZ
T1C0.006
T2C0.008
T3C0.012
T4C0.039
T5C0.087
%
G90
G05
M72
T1
X4.2992Y-2.9764
X4.2992Y-3.
X4.2992Y-3.0236
X4.2992Y-3.0433
X4.3031Y-3.063
X4.3189Y-3.0827
X4.3346Y-3.0984
X4.3504Y-3.1181
X4.3504Y-3.1417
X4.3504Y-3.1654
X4.3622Y-2.9764
X4.3622Y-3.
X4.3622Y-3.0236
X4.3622Y-3.1929
X4.3701Y-3.2126
X4.374Y-3.0394
X4.3858Y-3.1969
X4.3898Y-3.0551
X4.3937Y-3.0748
X4.4016Y-3.1772
T2
X4.1929Y-2.8228
X4.1929Y-2.9016
X4.2126Y-2.7835
X4.2126Y-2.8622
X4.2126Y-2.9409
X4.2323Y-2.8228
X4.2323Y-2.9016
X4.4291Y-2.8228
X4.4291Y-2.9016
X4.4488Y-2.7835
X4.4488Y-2.8622
X4.4488Y-2.9409
X4.4685Y-2.8228
X4.4685Y-2.9016
T3
X4.0976Y-3.3079
X4.2362Y-3.3071
X4.3031Y-3.2756
X4.3465Y-3.3071
X4.374Y-3.1732
X4.4331Y-3.0906
T4
X4.0157Y-3.0512
X4.0157Y-3.1512
X4.0157Y-3.2512
X4.0157Y-3.3512
X4.6496Y-2.8937
X4.6496Y-2.9937
X4.6496Y-3.0937
X4.6496Y-3.1937
X4.6496Y-3.2937
X4.6496Y-3.3937
T5
X4.0354Y-2.8543
T0
M30
