G04 #@! TF.FileFunction,Copper,L1,Top,Signal*
%FSLAX46Y46*%
G04 Gerber Fmt 4.6, Leading zero omitted, Abs format (unit mm)*
G04 Created by KiCad (PCBNEW 4.0.6-e0-6349~53~ubuntu16.04.1) date Sat Jun 24 14:45:07 2017*
%MOMM*%
%LPD*%
G01*
G04 APERTURE LIST*
%ADD10C,0.100000*%
%ADD11C,0.125000*%
%ADD12C,0.200000*%
%ADD13R,0.750000X0.800000*%
%ADD14R,0.800000X0.750000*%
%ADD15R,1.700000X1.700000*%
%ADD16O,1.700000X1.700000*%
%ADD17R,1.800000X5.080000*%
%ADD18C,0.300000*%
%ADD19R,0.500000X0.900000*%
%ADD20R,1.300000X1.100000*%
%ADD21R,0.250000X1.100000*%
%ADD22C,0.400000*%
%ADD23C,0.250000*%
%ADD24C,0.850000*%
G04 APERTURE END LIST*
D10*
D11*
X104445239Y-76471429D02*
X104278572Y-76185714D01*
X104159525Y-76471429D02*
X104159525Y-75871429D01*
X104350001Y-75871429D01*
X104397620Y-75900000D01*
X104421429Y-75928571D01*
X104445239Y-75985714D01*
X104445239Y-76071429D01*
X104421429Y-76128571D01*
X104397620Y-76157143D01*
X104350001Y-76185714D01*
X104159525Y-76185714D01*
X104850001Y-76442857D02*
X104802382Y-76471429D01*
X104707144Y-76471429D01*
X104659525Y-76442857D01*
X104635715Y-76385714D01*
X104635715Y-76157143D01*
X104659525Y-76100000D01*
X104707144Y-76071429D01*
X104802382Y-76071429D01*
X104850001Y-76100000D01*
X104873810Y-76157143D01*
X104873810Y-76214286D01*
X104635715Y-76271429D01*
X105040477Y-76071429D02*
X105159524Y-76471429D01*
X105278572Y-76071429D01*
X105826190Y-76300000D02*
X106064285Y-76300000D01*
X105778571Y-76471429D02*
X105945238Y-75871429D01*
X106111904Y-76471429D01*
D12*
X111600000Y-78100000D03*
X111500000Y-77600000D03*
X111100000Y-77200000D03*
X110800000Y-76800000D03*
X110800000Y-76200000D03*
X110800000Y-75600000D03*
X109200000Y-77300000D03*
X109200000Y-75600000D03*
X109200000Y-76200000D03*
X109200000Y-76800000D03*
X109300000Y-77800000D03*
X109700000Y-78300000D03*
X110100000Y-78700000D03*
X110500000Y-79200000D03*
X110500000Y-79800000D03*
X110500000Y-80400000D03*
X110800000Y-81100000D03*
X111000000Y-81600000D03*
X111400000Y-81200000D03*
D13*
X114600000Y-81050000D03*
X114600000Y-82550000D03*
D14*
X106950000Y-77500000D03*
X108450000Y-77500000D03*
D15*
X102000000Y-77500000D03*
D16*
X102000000Y-80040000D03*
X102000000Y-82580000D03*
X102000000Y-85120000D03*
D17*
X110000000Y-72660000D03*
X107000000Y-72660000D03*
D18*
X113000000Y-74700000D03*
X113000000Y-70700000D03*
X112500000Y-71700000D03*
X113500000Y-71700000D03*
X113000000Y-72700000D03*
X112500000Y-73700000D03*
X113500000Y-73700000D03*
X107000000Y-74700000D03*
X107000000Y-70700000D03*
X106500000Y-71700000D03*
X107500000Y-71700000D03*
X107000000Y-72700000D03*
X106500000Y-73700000D03*
X107500000Y-73700000D03*
D17*
X113000000Y-72660000D03*
D15*
X118100000Y-73500000D03*
D16*
X118100000Y-76040000D03*
X118100000Y-78580000D03*
X118100000Y-81120000D03*
X118100000Y-83660000D03*
X118100000Y-86200000D03*
D19*
X108450000Y-85400000D03*
X109950000Y-85400000D03*
X105450000Y-85400000D03*
X106950000Y-85400000D03*
D20*
X106950000Y-81950000D03*
X109250000Y-81950000D03*
X109250000Y-80050000D03*
X106950000Y-80050000D03*
D21*
X111100000Y-84250000D03*
X111600000Y-84250000D03*
X112100000Y-84250000D03*
X112600000Y-84250000D03*
X113100000Y-84250000D03*
X113116000Y-79550000D03*
X112608000Y-79550000D03*
X112100000Y-79550000D03*
X111592000Y-79550000D03*
X111084000Y-79550000D03*
D12*
X111800000Y-80700000D03*
D22*
X112600000Y-78500000D03*
X110400000Y-84000000D03*
X107600000Y-84000000D03*
X104078768Y-84021232D03*
X109300000Y-83200000D03*
X111100000Y-80600000D03*
D23*
X112600000Y-78500000D02*
X112600000Y-79542000D01*
X112600000Y-79542000D02*
X112608000Y-79550000D01*
X114600000Y-81050000D02*
X114600000Y-79773998D01*
X114600000Y-79773998D02*
X113326002Y-78500000D01*
X113326002Y-78500000D02*
X112600000Y-78500000D01*
X106950000Y-77500000D02*
X106950000Y-80050000D01*
X106950000Y-81950000D02*
X106950000Y-80050000D01*
X106950000Y-77500000D02*
X102000000Y-77500000D01*
X110650000Y-84250000D02*
X111100000Y-84250000D01*
X110650000Y-84250000D02*
X110400000Y-84000000D01*
X108450000Y-85400000D02*
X108450000Y-84850000D01*
X108450000Y-84850000D02*
X107600000Y-84000000D01*
X104078768Y-84878768D02*
X104600000Y-85400000D01*
X104600000Y-85400000D02*
X105450000Y-85400000D01*
X104078768Y-84021232D02*
X104078768Y-84878768D01*
X109250000Y-81950000D02*
X109250000Y-83150000D01*
X109250000Y-83150000D02*
X109300000Y-83200000D01*
X112300000Y-85400000D02*
X112600000Y-85100000D01*
X112600000Y-85100000D02*
X112600000Y-84250000D01*
X109950000Y-85400000D02*
X112300000Y-85400000D01*
X103900000Y-80400000D02*
X103540000Y-80040000D01*
X103540000Y-80040000D02*
X102000000Y-80040000D01*
X103900000Y-81900000D02*
X103900000Y-80400000D01*
X105400000Y-83400000D02*
X103900000Y-81900000D01*
X108150000Y-83400000D02*
X105400000Y-83400000D01*
X109950000Y-85400000D02*
X109950000Y-85200000D01*
X109950000Y-85200000D02*
X108150000Y-83400000D01*
X113100000Y-85236410D02*
X113100000Y-84250000D01*
X107200000Y-86600000D02*
X111736410Y-86600000D01*
X111736410Y-86600000D02*
X113100000Y-85236410D01*
X106950000Y-85400000D02*
X106950000Y-84650000D01*
X103380000Y-82580000D02*
X102000000Y-82580000D01*
X104800000Y-84000000D02*
X103380000Y-82580000D01*
X106300000Y-84000000D02*
X104800000Y-84000000D01*
X106950000Y-84650000D02*
X106300000Y-84000000D01*
X106950000Y-85400000D02*
X106950000Y-86350000D01*
X106950000Y-86350000D02*
X107200000Y-86600000D01*
D24*
X110800000Y-78100000D02*
X110000000Y-77300000D01*
D23*
X111100000Y-78400000D02*
X110800000Y-78100000D01*
X111084000Y-79550000D02*
X111084000Y-80584000D01*
X111084000Y-80584000D02*
X111100000Y-80600000D01*
D24*
X110000000Y-77300000D02*
X110000000Y-72660000D01*
D23*
X111100000Y-79000000D02*
X111100000Y-78400000D01*
X111084000Y-79550000D02*
X111084000Y-79016000D01*
X111084000Y-79016000D02*
X111100000Y-79000000D01*
X115474999Y-77974999D02*
X116080000Y-78580000D01*
X116080000Y-78580000D02*
X118100000Y-78580000D01*
X111592000Y-79550000D02*
X111592000Y-78750000D01*
X111592000Y-78750000D02*
X112367001Y-77974999D01*
X112367001Y-77974999D02*
X115474999Y-77974999D01*
X113550001Y-82850001D02*
X114360000Y-83660000D01*
X114360000Y-83660000D02*
X118100000Y-83660000D01*
X113116000Y-79550000D02*
X113116000Y-80350000D01*
X113116000Y-80350000D02*
X113550001Y-80784001D01*
X113550001Y-80784001D02*
X113550001Y-82850001D01*
X110085002Y-81000000D02*
X109400000Y-81000000D01*
X109400000Y-81000000D02*
X109250000Y-80850000D01*
X109250000Y-80850000D02*
X109250000Y-80050000D01*
X110400000Y-82250000D02*
X110400000Y-81314998D01*
X110400000Y-81314998D02*
X110085002Y-81000000D01*
X111600000Y-84250000D02*
X111600000Y-83450000D01*
X111600000Y-83450000D02*
X110400000Y-82250000D01*
D10*
G36*
X105850000Y-72547500D02*
X105912500Y-72610000D01*
X106950000Y-72610000D01*
X106950000Y-72590000D01*
X107050000Y-72590000D01*
X107050000Y-72610000D01*
X108087500Y-72610000D01*
X108150000Y-72547500D01*
X108150000Y-71050000D01*
X108848791Y-71050000D01*
X108848791Y-75200000D01*
X108851966Y-75239811D01*
X108872877Y-75307336D01*
X108911772Y-75366362D01*
X108965571Y-75412214D01*
X109030015Y-75441263D01*
X109100000Y-75451209D01*
X109325000Y-75451209D01*
X109325000Y-77300000D01*
X109331082Y-77362031D01*
X109336518Y-77424167D01*
X109337509Y-77427577D01*
X109337855Y-77431108D01*
X109355879Y-77490808D01*
X109373272Y-77550673D01*
X109374904Y-77553822D01*
X109375931Y-77557223D01*
X109405204Y-77612278D01*
X109433897Y-77667632D01*
X109436113Y-77670408D01*
X109437778Y-77673539D01*
X109477162Y-77721829D01*
X109516086Y-77770587D01*
X109520958Y-77775528D01*
X109521040Y-77775628D01*
X109521133Y-77775705D01*
X109522703Y-77777297D01*
X110322703Y-78577297D01*
X110424500Y-78660915D01*
X110540601Y-78723168D01*
X110666581Y-78761683D01*
X110725000Y-78767617D01*
X110725000Y-78913428D01*
X110724492Y-78915029D01*
X110717737Y-78930015D01*
X110707791Y-79000000D01*
X110707791Y-80100000D01*
X110709000Y-80115160D01*
X110709000Y-80374500D01*
X110703754Y-80382162D01*
X110668989Y-80463275D01*
X110650641Y-80549596D01*
X110649409Y-80637837D01*
X110665340Y-80724637D01*
X110697826Y-80806689D01*
X110745632Y-80880869D01*
X110806935Y-80944350D01*
X110879401Y-80994715D01*
X110960270Y-81030046D01*
X111046460Y-81048996D01*
X111134691Y-81050844D01*
X111221599Y-81035520D01*
X111303876Y-81003607D01*
X111378388Y-80956320D01*
X111442296Y-80895462D01*
X111493166Y-80823349D01*
X111529060Y-80742729D01*
X111548611Y-80656673D01*
X111550019Y-80555875D01*
X111532878Y-80469306D01*
X111499249Y-80387716D01*
X111474994Y-80351209D01*
X111717000Y-80351209D01*
X111756811Y-80348034D01*
X111824336Y-80327123D01*
X111844772Y-80313657D01*
X111856580Y-80321547D01*
X111902078Y-80340393D01*
X111950377Y-80350000D01*
X111987500Y-80350000D01*
X112050000Y-80287500D01*
X112050000Y-79600000D01*
X112030000Y-79600000D01*
X112030000Y-79500000D01*
X112050000Y-79500000D01*
X112050000Y-79480000D01*
X112150000Y-79480000D01*
X112150000Y-79500000D01*
X112170000Y-79500000D01*
X112170000Y-79600000D01*
X112150000Y-79600000D01*
X112150000Y-80287500D01*
X112212500Y-80350000D01*
X112249623Y-80350000D01*
X112297922Y-80340393D01*
X112343420Y-80321547D01*
X112353836Y-80314587D01*
X112413015Y-80341263D01*
X112483000Y-80351209D01*
X112733000Y-80351209D01*
X112741056Y-80350567D01*
X112744380Y-80384473D01*
X112747399Y-80418982D01*
X112747950Y-80420878D01*
X112748142Y-80422838D01*
X112758152Y-80455992D01*
X112767818Y-80489263D01*
X112768725Y-80491012D01*
X112769295Y-80492901D01*
X112785571Y-80523511D01*
X112801499Y-80554239D01*
X112802728Y-80555778D01*
X112803655Y-80557522D01*
X112825594Y-80584422D01*
X112847159Y-80611436D01*
X112849862Y-80614178D01*
X112849911Y-80614238D01*
X112849966Y-80614284D01*
X112850835Y-80615165D01*
X113175001Y-80939331D01*
X113175001Y-82850001D01*
X113178381Y-82884474D01*
X113181400Y-82918983D01*
X113181951Y-82920879D01*
X113182143Y-82922839D01*
X113192153Y-82955993D01*
X113201819Y-82989264D01*
X113202726Y-82991013D01*
X113203296Y-82992902D01*
X113219572Y-83023512D01*
X113235500Y-83054240D01*
X113236729Y-83055779D01*
X113237656Y-83057523D01*
X113259595Y-83084423D01*
X113281160Y-83111437D01*
X113283863Y-83114179D01*
X113283912Y-83114239D01*
X113283967Y-83114285D01*
X113284836Y-83115166D01*
X114094835Y-83925165D01*
X114121553Y-83947111D01*
X114148137Y-83969418D01*
X114149871Y-83970371D01*
X114151390Y-83971619D01*
X114181875Y-83987966D01*
X114212272Y-84004676D01*
X114214151Y-84005272D01*
X114215889Y-84006204D01*
X114249040Y-84016339D01*
X114282033Y-84026805D01*
X114283990Y-84027025D01*
X114285879Y-84027602D01*
X114320402Y-84031109D01*
X114354764Y-84034963D01*
X114358614Y-84034990D01*
X114358691Y-84034998D01*
X114358762Y-84034991D01*
X114360000Y-84035000D01*
X117063867Y-84035000D01*
X117074776Y-84072067D01*
X117174237Y-84262320D01*
X117308758Y-84429630D01*
X117473214Y-84567625D01*
X117661342Y-84671049D01*
X117865975Y-84735962D01*
X118079320Y-84759893D01*
X118094678Y-84760000D01*
X118105322Y-84760000D01*
X118318980Y-84739051D01*
X118524499Y-84677001D01*
X118714053Y-84576213D01*
X118880420Y-84440528D01*
X118950000Y-84356420D01*
X118950000Y-85510158D01*
X118882627Y-85427018D01*
X118716788Y-85289188D01*
X118527246Y-85186360D01*
X118321285Y-85122485D01*
X118150000Y-85163634D01*
X118150000Y-86150000D01*
X118170000Y-86150000D01*
X118170000Y-86250000D01*
X118150000Y-86250000D01*
X118150000Y-87236366D01*
X118321285Y-87277515D01*
X118527246Y-87213640D01*
X118716788Y-87110812D01*
X118882627Y-86972982D01*
X118950000Y-86889842D01*
X118950000Y-88950000D01*
X101050000Y-88950000D01*
X101050000Y-85665416D01*
X101081610Y-85725446D01*
X101217373Y-85892982D01*
X101383212Y-86030812D01*
X101572754Y-86133640D01*
X101778715Y-86197515D01*
X101950000Y-86156366D01*
X101950000Y-85170000D01*
X102050000Y-85170000D01*
X102050000Y-86156366D01*
X102221285Y-86197515D01*
X102427246Y-86133640D01*
X102616788Y-86030812D01*
X102782627Y-85892982D01*
X102918390Y-85725446D01*
X103018860Y-85534644D01*
X103077512Y-85341284D01*
X103036294Y-85170000D01*
X102050000Y-85170000D01*
X101950000Y-85170000D01*
X101930000Y-85170000D01*
X101930000Y-85070000D01*
X101950000Y-85070000D01*
X101950000Y-84083634D01*
X102050000Y-84083634D01*
X102050000Y-85070000D01*
X103036294Y-85070000D01*
X103077512Y-84898716D01*
X103018860Y-84705356D01*
X102918390Y-84514554D01*
X102782627Y-84347018D01*
X102616788Y-84209188D01*
X102427246Y-84106360D01*
X102221285Y-84042485D01*
X102050000Y-84083634D01*
X101950000Y-84083634D01*
X101778715Y-84042485D01*
X101572754Y-84106360D01*
X101383212Y-84209188D01*
X101217373Y-84347018D01*
X101081610Y-84514554D01*
X101050000Y-84574584D01*
X101050000Y-83135958D01*
X101074237Y-83182320D01*
X101208758Y-83349630D01*
X101373214Y-83487625D01*
X101561342Y-83591049D01*
X101765975Y-83655962D01*
X101979320Y-83679893D01*
X101994678Y-83680000D01*
X102005322Y-83680000D01*
X102218980Y-83659051D01*
X102424499Y-83597001D01*
X102614053Y-83496213D01*
X102780420Y-83360528D01*
X102917263Y-83195112D01*
X103019371Y-83006267D01*
X103035241Y-82955000D01*
X103224670Y-82955000D01*
X103884165Y-83614495D01*
X103869276Y-83620511D01*
X103795432Y-83668833D01*
X103732380Y-83730578D01*
X103682522Y-83803394D01*
X103647757Y-83884507D01*
X103629409Y-83970828D01*
X103628177Y-84059069D01*
X103644108Y-84145869D01*
X103676594Y-84227921D01*
X103703768Y-84270087D01*
X103703768Y-84878768D01*
X103707148Y-84913241D01*
X103710167Y-84947750D01*
X103710718Y-84949646D01*
X103710910Y-84951606D01*
X103720920Y-84984760D01*
X103730586Y-85018031D01*
X103731493Y-85019780D01*
X103732063Y-85021669D01*
X103748335Y-85052272D01*
X103764267Y-85083007D01*
X103765496Y-85084546D01*
X103766423Y-85086290D01*
X103788362Y-85113190D01*
X103809927Y-85140204D01*
X103812630Y-85142946D01*
X103812679Y-85143006D01*
X103812734Y-85143052D01*
X103813603Y-85143933D01*
X104334835Y-85665165D01*
X104361575Y-85687129D01*
X104388137Y-85709418D01*
X104389868Y-85710370D01*
X104391389Y-85711619D01*
X104421861Y-85727958D01*
X104452272Y-85744676D01*
X104454155Y-85745273D01*
X104455889Y-85746203D01*
X104488953Y-85756312D01*
X104522033Y-85766805D01*
X104523995Y-85767025D01*
X104525879Y-85767601D01*
X104560353Y-85771103D01*
X104594764Y-85774963D01*
X104598614Y-85774990D01*
X104598691Y-85774998D01*
X104598762Y-85774991D01*
X104600000Y-85775000D01*
X104948791Y-85775000D01*
X104948791Y-85850000D01*
X104951966Y-85889811D01*
X104972877Y-85957336D01*
X105011772Y-86016362D01*
X105065571Y-86062214D01*
X105130015Y-86091263D01*
X105200000Y-86101209D01*
X105700000Y-86101209D01*
X105739811Y-86098034D01*
X105807336Y-86077123D01*
X105866362Y-86038228D01*
X105912214Y-85984429D01*
X105941263Y-85919985D01*
X105951209Y-85850000D01*
X105951209Y-84950000D01*
X105948034Y-84910189D01*
X105927123Y-84842664D01*
X105888228Y-84783638D01*
X105834429Y-84737786D01*
X105769985Y-84708737D01*
X105700000Y-84698791D01*
X105200000Y-84698791D01*
X105160189Y-84701966D01*
X105092664Y-84722877D01*
X105033638Y-84761772D01*
X104987786Y-84815571D01*
X104958737Y-84880015D01*
X104948791Y-84950000D01*
X104948791Y-85025000D01*
X104755330Y-85025000D01*
X104453768Y-84723438D01*
X104453768Y-84270333D01*
X104471934Y-84244581D01*
X104484970Y-84215300D01*
X104534835Y-84265165D01*
X104561575Y-84287129D01*
X104588137Y-84309418D01*
X104589868Y-84310370D01*
X104591389Y-84311619D01*
X104621878Y-84327967D01*
X104652272Y-84344676D01*
X104654151Y-84345272D01*
X104655889Y-84346204D01*
X104688979Y-84356320D01*
X104722033Y-84366805D01*
X104723995Y-84367025D01*
X104725879Y-84367601D01*
X104760353Y-84371103D01*
X104794764Y-84374963D01*
X104798614Y-84374990D01*
X104798691Y-84374998D01*
X104798762Y-84374991D01*
X104800000Y-84375000D01*
X106144670Y-84375000D01*
X106532628Y-84762958D01*
X106487786Y-84815571D01*
X106458737Y-84880015D01*
X106448791Y-84950000D01*
X106448791Y-85850000D01*
X106451966Y-85889811D01*
X106472877Y-85957336D01*
X106511772Y-86016362D01*
X106565571Y-86062214D01*
X106575000Y-86066464D01*
X106575000Y-86350000D01*
X106578380Y-86384473D01*
X106581399Y-86418982D01*
X106581950Y-86420878D01*
X106582142Y-86422838D01*
X106592152Y-86455992D01*
X106601818Y-86489263D01*
X106602725Y-86491012D01*
X106603295Y-86492901D01*
X106619571Y-86523511D01*
X106635499Y-86554239D01*
X106636728Y-86555778D01*
X106637655Y-86557522D01*
X106659594Y-86584422D01*
X106681159Y-86611436D01*
X106683862Y-86614178D01*
X106683911Y-86614238D01*
X106683966Y-86614284D01*
X106684835Y-86615165D01*
X106934835Y-86865165D01*
X106961575Y-86887129D01*
X106988137Y-86909418D01*
X106989868Y-86910370D01*
X106991389Y-86911619D01*
X107021861Y-86927958D01*
X107052272Y-86944676D01*
X107054155Y-86945273D01*
X107055889Y-86946203D01*
X107088953Y-86956312D01*
X107122033Y-86966805D01*
X107123995Y-86967025D01*
X107125879Y-86967601D01*
X107160353Y-86971103D01*
X107194764Y-86974963D01*
X107198614Y-86974990D01*
X107198691Y-86974998D01*
X107198762Y-86974991D01*
X107200000Y-86975000D01*
X111736410Y-86975000D01*
X111770883Y-86971620D01*
X111805392Y-86968601D01*
X111807288Y-86968050D01*
X111809248Y-86967858D01*
X111842402Y-86957848D01*
X111875673Y-86948182D01*
X111877422Y-86947275D01*
X111879311Y-86946705D01*
X111909921Y-86930429D01*
X111940649Y-86914501D01*
X111942188Y-86913272D01*
X111943932Y-86912345D01*
X111970832Y-86890406D01*
X111997846Y-86868841D01*
X112000588Y-86866138D01*
X112000648Y-86866089D01*
X112000694Y-86866034D01*
X112001575Y-86865165D01*
X112445456Y-86421284D01*
X117022488Y-86421284D01*
X117081140Y-86614644D01*
X117181610Y-86805446D01*
X117317373Y-86972982D01*
X117483212Y-87110812D01*
X117672754Y-87213640D01*
X117878715Y-87277515D01*
X118050000Y-87236366D01*
X118050000Y-86250000D01*
X117063706Y-86250000D01*
X117022488Y-86421284D01*
X112445456Y-86421284D01*
X112888024Y-85978716D01*
X117022488Y-85978716D01*
X117063706Y-86150000D01*
X118050000Y-86150000D01*
X118050000Y-85163634D01*
X117878715Y-85122485D01*
X117672754Y-85186360D01*
X117483212Y-85289188D01*
X117317373Y-85427018D01*
X117181610Y-85594554D01*
X117081140Y-85785356D01*
X117022488Y-85978716D01*
X112888024Y-85978716D01*
X113365165Y-85501575D01*
X113387129Y-85474835D01*
X113409418Y-85448273D01*
X113410370Y-85446542D01*
X113411619Y-85445021D01*
X113427968Y-85414530D01*
X113444676Y-85384138D01*
X113445273Y-85382257D01*
X113446203Y-85380522D01*
X113456316Y-85347443D01*
X113466805Y-85314377D01*
X113467025Y-85312415D01*
X113467601Y-85310531D01*
X113471098Y-85276102D01*
X113474963Y-85241646D01*
X113474990Y-85237785D01*
X113474997Y-85237719D01*
X113474991Y-85237657D01*
X113475000Y-85236410D01*
X113475000Y-84808507D01*
X113476209Y-84800000D01*
X113476209Y-83700000D01*
X113473034Y-83660189D01*
X113452123Y-83592664D01*
X113413228Y-83533638D01*
X113359429Y-83487786D01*
X113294985Y-83458737D01*
X113225000Y-83448791D01*
X112975000Y-83448791D01*
X112935189Y-83451966D01*
X112867664Y-83472877D01*
X112850884Y-83483934D01*
X112794985Y-83458737D01*
X112725000Y-83448791D01*
X112475000Y-83448791D01*
X112435189Y-83451966D01*
X112367664Y-83472877D01*
X112350884Y-83483934D01*
X112294985Y-83458737D01*
X112225000Y-83448791D01*
X111975000Y-83448791D01*
X111974882Y-83448800D01*
X111971620Y-83415531D01*
X111968601Y-83381018D01*
X111968050Y-83379122D01*
X111967858Y-83377162D01*
X111957848Y-83344008D01*
X111948182Y-83310737D01*
X111947275Y-83308988D01*
X111946705Y-83307099D01*
X111930440Y-83276510D01*
X111914501Y-83245760D01*
X111913270Y-83244219D01*
X111912345Y-83242478D01*
X111890444Y-83215624D01*
X111868841Y-83188563D01*
X111866137Y-83185820D01*
X111866089Y-83185762D01*
X111866035Y-83185717D01*
X111865165Y-83184835D01*
X110775000Y-82094670D01*
X110775000Y-81314998D01*
X110771620Y-81280529D01*
X110768601Y-81246016D01*
X110768050Y-81244120D01*
X110767858Y-81242160D01*
X110757852Y-81209020D01*
X110748182Y-81175734D01*
X110747274Y-81173983D01*
X110746705Y-81172097D01*
X110730450Y-81141526D01*
X110714501Y-81110758D01*
X110713270Y-81109217D01*
X110712345Y-81107476D01*
X110690444Y-81080622D01*
X110668841Y-81053561D01*
X110666137Y-81050818D01*
X110666089Y-81050760D01*
X110666035Y-81050715D01*
X110665165Y-81049833D01*
X110350167Y-80734835D01*
X110323427Y-80712871D01*
X110296865Y-80690582D01*
X110295134Y-80689630D01*
X110293613Y-80688381D01*
X110263106Y-80672023D01*
X110250000Y-80664818D01*
X110250000Y-79200000D01*
X110246581Y-79181827D01*
X110235840Y-79165136D01*
X110219453Y-79153939D01*
X110200000Y-79150000D01*
X107325000Y-79150000D01*
X107325000Y-78126209D01*
X107350000Y-78126209D01*
X107389811Y-78123034D01*
X107457336Y-78102123D01*
X107516362Y-78063228D01*
X107562214Y-78009429D01*
X107591263Y-77944985D01*
X107601209Y-77875000D01*
X107601209Y-77612500D01*
X107800000Y-77612500D01*
X107800000Y-77899623D01*
X107809607Y-77947922D01*
X107828453Y-77993419D01*
X107855812Y-78034366D01*
X107890634Y-78069188D01*
X107931580Y-78096547D01*
X107977078Y-78115393D01*
X108025377Y-78125000D01*
X108337500Y-78125000D01*
X108400000Y-78062500D01*
X108400000Y-77550000D01*
X108500000Y-77550000D01*
X108500000Y-78062500D01*
X108562500Y-78125000D01*
X108874623Y-78125000D01*
X108922922Y-78115393D01*
X108968420Y-78096547D01*
X109009366Y-78069188D01*
X109044188Y-78034366D01*
X109071547Y-77993419D01*
X109090393Y-77947922D01*
X109100000Y-77899623D01*
X109100000Y-77612500D01*
X109037500Y-77550000D01*
X108500000Y-77550000D01*
X108400000Y-77550000D01*
X107862500Y-77550000D01*
X107800000Y-77612500D01*
X107601209Y-77612500D01*
X107601209Y-77125000D01*
X107599246Y-77100377D01*
X107800000Y-77100377D01*
X107800000Y-77387500D01*
X107862500Y-77450000D01*
X108400000Y-77450000D01*
X108400000Y-76937500D01*
X108500000Y-76937500D01*
X108500000Y-77450000D01*
X109037500Y-77450000D01*
X109100000Y-77387500D01*
X109100000Y-77100377D01*
X109090393Y-77052078D01*
X109071547Y-77006581D01*
X109044188Y-76965634D01*
X109009366Y-76930812D01*
X108968420Y-76903453D01*
X108922922Y-76884607D01*
X108874623Y-76875000D01*
X108562500Y-76875000D01*
X108500000Y-76937500D01*
X108400000Y-76937500D01*
X108337500Y-76875000D01*
X108025377Y-76875000D01*
X107977078Y-76884607D01*
X107931580Y-76903453D01*
X107890634Y-76930812D01*
X107855812Y-76965634D01*
X107828453Y-77006581D01*
X107809607Y-77052078D01*
X107800000Y-77100377D01*
X107599246Y-77100377D01*
X107598034Y-77085189D01*
X107577123Y-77017664D01*
X107538228Y-76958638D01*
X107484429Y-76912786D01*
X107419985Y-76883737D01*
X107350000Y-76873791D01*
X106550000Y-76873791D01*
X106510189Y-76876966D01*
X106442664Y-76897877D01*
X106409523Y-76919715D01*
X106409523Y-75467500D01*
X103790477Y-75467500D01*
X103790477Y-76992500D01*
X106336916Y-76992500D01*
X106308737Y-77055015D01*
X106298791Y-77125000D01*
X103101209Y-77125000D01*
X103101209Y-76650000D01*
X103098034Y-76610189D01*
X103077123Y-76542664D01*
X103038228Y-76483638D01*
X102984429Y-76437786D01*
X102919985Y-76408737D01*
X102850000Y-76398791D01*
X101150000Y-76398791D01*
X101110189Y-76401966D01*
X101050000Y-76420605D01*
X101050000Y-72613512D01*
X101148226Y-72613512D01*
X101196018Y-72873911D01*
X101293478Y-73120068D01*
X101436895Y-73342607D01*
X101620805Y-73533051D01*
X101838203Y-73684147D01*
X102080809Y-73790139D01*
X102339381Y-73846989D01*
X102604072Y-73852534D01*
X102864798Y-73806561D01*
X103111630Y-73710821D01*
X103335164Y-73568962D01*
X103526888Y-73386386D01*
X103679498Y-73170048D01*
X103787181Y-72928188D01*
X103822552Y-72772500D01*
X105850000Y-72772500D01*
X105850000Y-75224623D01*
X105859607Y-75272922D01*
X105878453Y-75318419D01*
X105905812Y-75359366D01*
X105940634Y-75394188D01*
X105981580Y-75421547D01*
X106027078Y-75440393D01*
X106075377Y-75450000D01*
X106887500Y-75450000D01*
X106950000Y-75387500D01*
X106950000Y-72710000D01*
X107050000Y-72710000D01*
X107050000Y-75387500D01*
X107112500Y-75450000D01*
X107924623Y-75450000D01*
X107972922Y-75440393D01*
X108018420Y-75421547D01*
X108059366Y-75394188D01*
X108094188Y-75359366D01*
X108121547Y-75318419D01*
X108140393Y-75272922D01*
X108150000Y-75224623D01*
X108150000Y-72772500D01*
X108087500Y-72710000D01*
X107050000Y-72710000D01*
X106950000Y-72710000D01*
X105912500Y-72710000D01*
X105850000Y-72772500D01*
X103822552Y-72772500D01*
X103845835Y-72670019D01*
X103850058Y-72367626D01*
X103798635Y-72107919D01*
X103697747Y-71863147D01*
X103551237Y-71642632D01*
X103364686Y-71454774D01*
X103145199Y-71306729D01*
X102901137Y-71204134D01*
X102641796Y-71150899D01*
X102377054Y-71149051D01*
X102116995Y-71198660D01*
X101871524Y-71297836D01*
X101649992Y-71442803D01*
X101460836Y-71628038D01*
X101311262Y-71846486D01*
X101206966Y-72089826D01*
X101151922Y-72348789D01*
X101148226Y-72613512D01*
X101050000Y-72613512D01*
X101050000Y-71050000D01*
X105850000Y-71050000D01*
X105850000Y-72547500D01*
X105850000Y-72547500D01*
G37*
X105850000Y-72547500D02*
X105912500Y-72610000D01*
X106950000Y-72610000D01*
X106950000Y-72590000D01*
X107050000Y-72590000D01*
X107050000Y-72610000D01*
X108087500Y-72610000D01*
X108150000Y-72547500D01*
X108150000Y-71050000D01*
X108848791Y-71050000D01*
X108848791Y-75200000D01*
X108851966Y-75239811D01*
X108872877Y-75307336D01*
X108911772Y-75366362D01*
X108965571Y-75412214D01*
X109030015Y-75441263D01*
X109100000Y-75451209D01*
X109325000Y-75451209D01*
X109325000Y-77300000D01*
X109331082Y-77362031D01*
X109336518Y-77424167D01*
X109337509Y-77427577D01*
X109337855Y-77431108D01*
X109355879Y-77490808D01*
X109373272Y-77550673D01*
X109374904Y-77553822D01*
X109375931Y-77557223D01*
X109405204Y-77612278D01*
X109433897Y-77667632D01*
X109436113Y-77670408D01*
X109437778Y-77673539D01*
X109477162Y-77721829D01*
X109516086Y-77770587D01*
X109520958Y-77775528D01*
X109521040Y-77775628D01*
X109521133Y-77775705D01*
X109522703Y-77777297D01*
X110322703Y-78577297D01*
X110424500Y-78660915D01*
X110540601Y-78723168D01*
X110666581Y-78761683D01*
X110725000Y-78767617D01*
X110725000Y-78913428D01*
X110724492Y-78915029D01*
X110717737Y-78930015D01*
X110707791Y-79000000D01*
X110707791Y-80100000D01*
X110709000Y-80115160D01*
X110709000Y-80374500D01*
X110703754Y-80382162D01*
X110668989Y-80463275D01*
X110650641Y-80549596D01*
X110649409Y-80637837D01*
X110665340Y-80724637D01*
X110697826Y-80806689D01*
X110745632Y-80880869D01*
X110806935Y-80944350D01*
X110879401Y-80994715D01*
X110960270Y-81030046D01*
X111046460Y-81048996D01*
X111134691Y-81050844D01*
X111221599Y-81035520D01*
X111303876Y-81003607D01*
X111378388Y-80956320D01*
X111442296Y-80895462D01*
X111493166Y-80823349D01*
X111529060Y-80742729D01*
X111548611Y-80656673D01*
X111550019Y-80555875D01*
X111532878Y-80469306D01*
X111499249Y-80387716D01*
X111474994Y-80351209D01*
X111717000Y-80351209D01*
X111756811Y-80348034D01*
X111824336Y-80327123D01*
X111844772Y-80313657D01*
X111856580Y-80321547D01*
X111902078Y-80340393D01*
X111950377Y-80350000D01*
X111987500Y-80350000D01*
X112050000Y-80287500D01*
X112050000Y-79600000D01*
X112030000Y-79600000D01*
X112030000Y-79500000D01*
X112050000Y-79500000D01*
X112050000Y-79480000D01*
X112150000Y-79480000D01*
X112150000Y-79500000D01*
X112170000Y-79500000D01*
X112170000Y-79600000D01*
X112150000Y-79600000D01*
X112150000Y-80287500D01*
X112212500Y-80350000D01*
X112249623Y-80350000D01*
X112297922Y-80340393D01*
X112343420Y-80321547D01*
X112353836Y-80314587D01*
X112413015Y-80341263D01*
X112483000Y-80351209D01*
X112733000Y-80351209D01*
X112741056Y-80350567D01*
X112744380Y-80384473D01*
X112747399Y-80418982D01*
X112747950Y-80420878D01*
X112748142Y-80422838D01*
X112758152Y-80455992D01*
X112767818Y-80489263D01*
X112768725Y-80491012D01*
X112769295Y-80492901D01*
X112785571Y-80523511D01*
X112801499Y-80554239D01*
X112802728Y-80555778D01*
X112803655Y-80557522D01*
X112825594Y-80584422D01*
X112847159Y-80611436D01*
X112849862Y-80614178D01*
X112849911Y-80614238D01*
X112849966Y-80614284D01*
X112850835Y-80615165D01*
X113175001Y-80939331D01*
X113175001Y-82850001D01*
X113178381Y-82884474D01*
X113181400Y-82918983D01*
X113181951Y-82920879D01*
X113182143Y-82922839D01*
X113192153Y-82955993D01*
X113201819Y-82989264D01*
X113202726Y-82991013D01*
X113203296Y-82992902D01*
X113219572Y-83023512D01*
X113235500Y-83054240D01*
X113236729Y-83055779D01*
X113237656Y-83057523D01*
X113259595Y-83084423D01*
X113281160Y-83111437D01*
X113283863Y-83114179D01*
X113283912Y-83114239D01*
X113283967Y-83114285D01*
X113284836Y-83115166D01*
X114094835Y-83925165D01*
X114121553Y-83947111D01*
X114148137Y-83969418D01*
X114149871Y-83970371D01*
X114151390Y-83971619D01*
X114181875Y-83987966D01*
X114212272Y-84004676D01*
X114214151Y-84005272D01*
X114215889Y-84006204D01*
X114249040Y-84016339D01*
X114282033Y-84026805D01*
X114283990Y-84027025D01*
X114285879Y-84027602D01*
X114320402Y-84031109D01*
X114354764Y-84034963D01*
X114358614Y-84034990D01*
X114358691Y-84034998D01*
X114358762Y-84034991D01*
X114360000Y-84035000D01*
X117063867Y-84035000D01*
X117074776Y-84072067D01*
X117174237Y-84262320D01*
X117308758Y-84429630D01*
X117473214Y-84567625D01*
X117661342Y-84671049D01*
X117865975Y-84735962D01*
X118079320Y-84759893D01*
X118094678Y-84760000D01*
X118105322Y-84760000D01*
X118318980Y-84739051D01*
X118524499Y-84677001D01*
X118714053Y-84576213D01*
X118880420Y-84440528D01*
X118950000Y-84356420D01*
X118950000Y-85510158D01*
X118882627Y-85427018D01*
X118716788Y-85289188D01*
X118527246Y-85186360D01*
X118321285Y-85122485D01*
X118150000Y-85163634D01*
X118150000Y-86150000D01*
X118170000Y-86150000D01*
X118170000Y-86250000D01*
X118150000Y-86250000D01*
X118150000Y-87236366D01*
X118321285Y-87277515D01*
X118527246Y-87213640D01*
X118716788Y-87110812D01*
X118882627Y-86972982D01*
X118950000Y-86889842D01*
X118950000Y-88950000D01*
X101050000Y-88950000D01*
X101050000Y-85665416D01*
X101081610Y-85725446D01*
X101217373Y-85892982D01*
X101383212Y-86030812D01*
X101572754Y-86133640D01*
X101778715Y-86197515D01*
X101950000Y-86156366D01*
X101950000Y-85170000D01*
X102050000Y-85170000D01*
X102050000Y-86156366D01*
X102221285Y-86197515D01*
X102427246Y-86133640D01*
X102616788Y-86030812D01*
X102782627Y-85892982D01*
X102918390Y-85725446D01*
X103018860Y-85534644D01*
X103077512Y-85341284D01*
X103036294Y-85170000D01*
X102050000Y-85170000D01*
X101950000Y-85170000D01*
X101930000Y-85170000D01*
X101930000Y-85070000D01*
X101950000Y-85070000D01*
X101950000Y-84083634D01*
X102050000Y-84083634D01*
X102050000Y-85070000D01*
X103036294Y-85070000D01*
X103077512Y-84898716D01*
X103018860Y-84705356D01*
X102918390Y-84514554D01*
X102782627Y-84347018D01*
X102616788Y-84209188D01*
X102427246Y-84106360D01*
X102221285Y-84042485D01*
X102050000Y-84083634D01*
X101950000Y-84083634D01*
X101778715Y-84042485D01*
X101572754Y-84106360D01*
X101383212Y-84209188D01*
X101217373Y-84347018D01*
X101081610Y-84514554D01*
X101050000Y-84574584D01*
X101050000Y-83135958D01*
X101074237Y-83182320D01*
X101208758Y-83349630D01*
X101373214Y-83487625D01*
X101561342Y-83591049D01*
X101765975Y-83655962D01*
X101979320Y-83679893D01*
X101994678Y-83680000D01*
X102005322Y-83680000D01*
X102218980Y-83659051D01*
X102424499Y-83597001D01*
X102614053Y-83496213D01*
X102780420Y-83360528D01*
X102917263Y-83195112D01*
X103019371Y-83006267D01*
X103035241Y-82955000D01*
X103224670Y-82955000D01*
X103884165Y-83614495D01*
X103869276Y-83620511D01*
X103795432Y-83668833D01*
X103732380Y-83730578D01*
X103682522Y-83803394D01*
X103647757Y-83884507D01*
X103629409Y-83970828D01*
X103628177Y-84059069D01*
X103644108Y-84145869D01*
X103676594Y-84227921D01*
X103703768Y-84270087D01*
X103703768Y-84878768D01*
X103707148Y-84913241D01*
X103710167Y-84947750D01*
X103710718Y-84949646D01*
X103710910Y-84951606D01*
X103720920Y-84984760D01*
X103730586Y-85018031D01*
X103731493Y-85019780D01*
X103732063Y-85021669D01*
X103748335Y-85052272D01*
X103764267Y-85083007D01*
X103765496Y-85084546D01*
X103766423Y-85086290D01*
X103788362Y-85113190D01*
X103809927Y-85140204D01*
X103812630Y-85142946D01*
X103812679Y-85143006D01*
X103812734Y-85143052D01*
X103813603Y-85143933D01*
X104334835Y-85665165D01*
X104361575Y-85687129D01*
X104388137Y-85709418D01*
X104389868Y-85710370D01*
X104391389Y-85711619D01*
X104421861Y-85727958D01*
X104452272Y-85744676D01*
X104454155Y-85745273D01*
X104455889Y-85746203D01*
X104488953Y-85756312D01*
X104522033Y-85766805D01*
X104523995Y-85767025D01*
X104525879Y-85767601D01*
X104560353Y-85771103D01*
X104594764Y-85774963D01*
X104598614Y-85774990D01*
X104598691Y-85774998D01*
X104598762Y-85774991D01*
X104600000Y-85775000D01*
X104948791Y-85775000D01*
X104948791Y-85850000D01*
X104951966Y-85889811D01*
X104972877Y-85957336D01*
X105011772Y-86016362D01*
X105065571Y-86062214D01*
X105130015Y-86091263D01*
X105200000Y-86101209D01*
X105700000Y-86101209D01*
X105739811Y-86098034D01*
X105807336Y-86077123D01*
X105866362Y-86038228D01*
X105912214Y-85984429D01*
X105941263Y-85919985D01*
X105951209Y-85850000D01*
X105951209Y-84950000D01*
X105948034Y-84910189D01*
X105927123Y-84842664D01*
X105888228Y-84783638D01*
X105834429Y-84737786D01*
X105769985Y-84708737D01*
X105700000Y-84698791D01*
X105200000Y-84698791D01*
X105160189Y-84701966D01*
X105092664Y-84722877D01*
X105033638Y-84761772D01*
X104987786Y-84815571D01*
X104958737Y-84880015D01*
X104948791Y-84950000D01*
X104948791Y-85025000D01*
X104755330Y-85025000D01*
X104453768Y-84723438D01*
X104453768Y-84270333D01*
X104471934Y-84244581D01*
X104484970Y-84215300D01*
X104534835Y-84265165D01*
X104561575Y-84287129D01*
X104588137Y-84309418D01*
X104589868Y-84310370D01*
X104591389Y-84311619D01*
X104621878Y-84327967D01*
X104652272Y-84344676D01*
X104654151Y-84345272D01*
X104655889Y-84346204D01*
X104688979Y-84356320D01*
X104722033Y-84366805D01*
X104723995Y-84367025D01*
X104725879Y-84367601D01*
X104760353Y-84371103D01*
X104794764Y-84374963D01*
X104798614Y-84374990D01*
X104798691Y-84374998D01*
X104798762Y-84374991D01*
X104800000Y-84375000D01*
X106144670Y-84375000D01*
X106532628Y-84762958D01*
X106487786Y-84815571D01*
X106458737Y-84880015D01*
X106448791Y-84950000D01*
X106448791Y-85850000D01*
X106451966Y-85889811D01*
X106472877Y-85957336D01*
X106511772Y-86016362D01*
X106565571Y-86062214D01*
X106575000Y-86066464D01*
X106575000Y-86350000D01*
X106578380Y-86384473D01*
X106581399Y-86418982D01*
X106581950Y-86420878D01*
X106582142Y-86422838D01*
X106592152Y-86455992D01*
X106601818Y-86489263D01*
X106602725Y-86491012D01*
X106603295Y-86492901D01*
X106619571Y-86523511D01*
X106635499Y-86554239D01*
X106636728Y-86555778D01*
X106637655Y-86557522D01*
X106659594Y-86584422D01*
X106681159Y-86611436D01*
X106683862Y-86614178D01*
X106683911Y-86614238D01*
X106683966Y-86614284D01*
X106684835Y-86615165D01*
X106934835Y-86865165D01*
X106961575Y-86887129D01*
X106988137Y-86909418D01*
X106989868Y-86910370D01*
X106991389Y-86911619D01*
X107021861Y-86927958D01*
X107052272Y-86944676D01*
X107054155Y-86945273D01*
X107055889Y-86946203D01*
X107088953Y-86956312D01*
X107122033Y-86966805D01*
X107123995Y-86967025D01*
X107125879Y-86967601D01*
X107160353Y-86971103D01*
X107194764Y-86974963D01*
X107198614Y-86974990D01*
X107198691Y-86974998D01*
X107198762Y-86974991D01*
X107200000Y-86975000D01*
X111736410Y-86975000D01*
X111770883Y-86971620D01*
X111805392Y-86968601D01*
X111807288Y-86968050D01*
X111809248Y-86967858D01*
X111842402Y-86957848D01*
X111875673Y-86948182D01*
X111877422Y-86947275D01*
X111879311Y-86946705D01*
X111909921Y-86930429D01*
X111940649Y-86914501D01*
X111942188Y-86913272D01*
X111943932Y-86912345D01*
X111970832Y-86890406D01*
X111997846Y-86868841D01*
X112000588Y-86866138D01*
X112000648Y-86866089D01*
X112000694Y-86866034D01*
X112001575Y-86865165D01*
X112445456Y-86421284D01*
X117022488Y-86421284D01*
X117081140Y-86614644D01*
X117181610Y-86805446D01*
X117317373Y-86972982D01*
X117483212Y-87110812D01*
X117672754Y-87213640D01*
X117878715Y-87277515D01*
X118050000Y-87236366D01*
X118050000Y-86250000D01*
X117063706Y-86250000D01*
X117022488Y-86421284D01*
X112445456Y-86421284D01*
X112888024Y-85978716D01*
X117022488Y-85978716D01*
X117063706Y-86150000D01*
X118050000Y-86150000D01*
X118050000Y-85163634D01*
X117878715Y-85122485D01*
X117672754Y-85186360D01*
X117483212Y-85289188D01*
X117317373Y-85427018D01*
X117181610Y-85594554D01*
X117081140Y-85785356D01*
X117022488Y-85978716D01*
X112888024Y-85978716D01*
X113365165Y-85501575D01*
X113387129Y-85474835D01*
X113409418Y-85448273D01*
X113410370Y-85446542D01*
X113411619Y-85445021D01*
X113427968Y-85414530D01*
X113444676Y-85384138D01*
X113445273Y-85382257D01*
X113446203Y-85380522D01*
X113456316Y-85347443D01*
X113466805Y-85314377D01*
X113467025Y-85312415D01*
X113467601Y-85310531D01*
X113471098Y-85276102D01*
X113474963Y-85241646D01*
X113474990Y-85237785D01*
X113474997Y-85237719D01*
X113474991Y-85237657D01*
X113475000Y-85236410D01*
X113475000Y-84808507D01*
X113476209Y-84800000D01*
X113476209Y-83700000D01*
X113473034Y-83660189D01*
X113452123Y-83592664D01*
X113413228Y-83533638D01*
X113359429Y-83487786D01*
X113294985Y-83458737D01*
X113225000Y-83448791D01*
X112975000Y-83448791D01*
X112935189Y-83451966D01*
X112867664Y-83472877D01*
X112850884Y-83483934D01*
X112794985Y-83458737D01*
X112725000Y-83448791D01*
X112475000Y-83448791D01*
X112435189Y-83451966D01*
X112367664Y-83472877D01*
X112350884Y-83483934D01*
X112294985Y-83458737D01*
X112225000Y-83448791D01*
X111975000Y-83448791D01*
X111974882Y-83448800D01*
X111971620Y-83415531D01*
X111968601Y-83381018D01*
X111968050Y-83379122D01*
X111967858Y-83377162D01*
X111957848Y-83344008D01*
X111948182Y-83310737D01*
X111947275Y-83308988D01*
X111946705Y-83307099D01*
X111930440Y-83276510D01*
X111914501Y-83245760D01*
X111913270Y-83244219D01*
X111912345Y-83242478D01*
X111890444Y-83215624D01*
X111868841Y-83188563D01*
X111866137Y-83185820D01*
X111866089Y-83185762D01*
X111866035Y-83185717D01*
X111865165Y-83184835D01*
X110775000Y-82094670D01*
X110775000Y-81314998D01*
X110771620Y-81280529D01*
X110768601Y-81246016D01*
X110768050Y-81244120D01*
X110767858Y-81242160D01*
X110757852Y-81209020D01*
X110748182Y-81175734D01*
X110747274Y-81173983D01*
X110746705Y-81172097D01*
X110730450Y-81141526D01*
X110714501Y-81110758D01*
X110713270Y-81109217D01*
X110712345Y-81107476D01*
X110690444Y-81080622D01*
X110668841Y-81053561D01*
X110666137Y-81050818D01*
X110666089Y-81050760D01*
X110666035Y-81050715D01*
X110665165Y-81049833D01*
X110350167Y-80734835D01*
X110323427Y-80712871D01*
X110296865Y-80690582D01*
X110295134Y-80689630D01*
X110293613Y-80688381D01*
X110263106Y-80672023D01*
X110250000Y-80664818D01*
X110250000Y-79200000D01*
X110246581Y-79181827D01*
X110235840Y-79165136D01*
X110219453Y-79153939D01*
X110200000Y-79150000D01*
X107325000Y-79150000D01*
X107325000Y-78126209D01*
X107350000Y-78126209D01*
X107389811Y-78123034D01*
X107457336Y-78102123D01*
X107516362Y-78063228D01*
X107562214Y-78009429D01*
X107591263Y-77944985D01*
X107601209Y-77875000D01*
X107601209Y-77612500D01*
X107800000Y-77612500D01*
X107800000Y-77899623D01*
X107809607Y-77947922D01*
X107828453Y-77993419D01*
X107855812Y-78034366D01*
X107890634Y-78069188D01*
X107931580Y-78096547D01*
X107977078Y-78115393D01*
X108025377Y-78125000D01*
X108337500Y-78125000D01*
X108400000Y-78062500D01*
X108400000Y-77550000D01*
X108500000Y-77550000D01*
X108500000Y-78062500D01*
X108562500Y-78125000D01*
X108874623Y-78125000D01*
X108922922Y-78115393D01*
X108968420Y-78096547D01*
X109009366Y-78069188D01*
X109044188Y-78034366D01*
X109071547Y-77993419D01*
X109090393Y-77947922D01*
X109100000Y-77899623D01*
X109100000Y-77612500D01*
X109037500Y-77550000D01*
X108500000Y-77550000D01*
X108400000Y-77550000D01*
X107862500Y-77550000D01*
X107800000Y-77612500D01*
X107601209Y-77612500D01*
X107601209Y-77125000D01*
X107599246Y-77100377D01*
X107800000Y-77100377D01*
X107800000Y-77387500D01*
X107862500Y-77450000D01*
X108400000Y-77450000D01*
X108400000Y-76937500D01*
X108500000Y-76937500D01*
X108500000Y-77450000D01*
X109037500Y-77450000D01*
X109100000Y-77387500D01*
X109100000Y-77100377D01*
X109090393Y-77052078D01*
X109071547Y-77006581D01*
X109044188Y-76965634D01*
X109009366Y-76930812D01*
X108968420Y-76903453D01*
X108922922Y-76884607D01*
X108874623Y-76875000D01*
X108562500Y-76875000D01*
X108500000Y-76937500D01*
X108400000Y-76937500D01*
X108337500Y-76875000D01*
X108025377Y-76875000D01*
X107977078Y-76884607D01*
X107931580Y-76903453D01*
X107890634Y-76930812D01*
X107855812Y-76965634D01*
X107828453Y-77006581D01*
X107809607Y-77052078D01*
X107800000Y-77100377D01*
X107599246Y-77100377D01*
X107598034Y-77085189D01*
X107577123Y-77017664D01*
X107538228Y-76958638D01*
X107484429Y-76912786D01*
X107419985Y-76883737D01*
X107350000Y-76873791D01*
X106550000Y-76873791D01*
X106510189Y-76876966D01*
X106442664Y-76897877D01*
X106409523Y-76919715D01*
X106409523Y-75467500D01*
X103790477Y-75467500D01*
X103790477Y-76992500D01*
X106336916Y-76992500D01*
X106308737Y-77055015D01*
X106298791Y-77125000D01*
X103101209Y-77125000D01*
X103101209Y-76650000D01*
X103098034Y-76610189D01*
X103077123Y-76542664D01*
X103038228Y-76483638D01*
X102984429Y-76437786D01*
X102919985Y-76408737D01*
X102850000Y-76398791D01*
X101150000Y-76398791D01*
X101110189Y-76401966D01*
X101050000Y-76420605D01*
X101050000Y-72613512D01*
X101148226Y-72613512D01*
X101196018Y-72873911D01*
X101293478Y-73120068D01*
X101436895Y-73342607D01*
X101620805Y-73533051D01*
X101838203Y-73684147D01*
X102080809Y-73790139D01*
X102339381Y-73846989D01*
X102604072Y-73852534D01*
X102864798Y-73806561D01*
X103111630Y-73710821D01*
X103335164Y-73568962D01*
X103526888Y-73386386D01*
X103679498Y-73170048D01*
X103787181Y-72928188D01*
X103822552Y-72772500D01*
X105850000Y-72772500D01*
X105850000Y-75224623D01*
X105859607Y-75272922D01*
X105878453Y-75318419D01*
X105905812Y-75359366D01*
X105940634Y-75394188D01*
X105981580Y-75421547D01*
X106027078Y-75440393D01*
X106075377Y-75450000D01*
X106887500Y-75450000D01*
X106950000Y-75387500D01*
X106950000Y-72710000D01*
X107050000Y-72710000D01*
X107050000Y-75387500D01*
X107112500Y-75450000D01*
X107924623Y-75450000D01*
X107972922Y-75440393D01*
X108018420Y-75421547D01*
X108059366Y-75394188D01*
X108094188Y-75359366D01*
X108121547Y-75318419D01*
X108140393Y-75272922D01*
X108150000Y-75224623D01*
X108150000Y-72772500D01*
X108087500Y-72710000D01*
X107050000Y-72710000D01*
X106950000Y-72710000D01*
X105912500Y-72710000D01*
X105850000Y-72772500D01*
X103822552Y-72772500D01*
X103845835Y-72670019D01*
X103850058Y-72367626D01*
X103798635Y-72107919D01*
X103697747Y-71863147D01*
X103551237Y-71642632D01*
X103364686Y-71454774D01*
X103145199Y-71306729D01*
X102901137Y-71204134D01*
X102641796Y-71150899D01*
X102377054Y-71149051D01*
X102116995Y-71198660D01*
X101871524Y-71297836D01*
X101649992Y-71442803D01*
X101460836Y-71628038D01*
X101311262Y-71846486D01*
X101206966Y-72089826D01*
X101151922Y-72348789D01*
X101148226Y-72613512D01*
X101050000Y-72613512D01*
X101050000Y-71050000D01*
X105850000Y-71050000D01*
X105850000Y-72547500D01*
G36*
X106301966Y-77914811D02*
X106322877Y-77982336D01*
X106361772Y-78041362D01*
X106415571Y-78087214D01*
X106480015Y-78116263D01*
X106550000Y-78126209D01*
X106575000Y-78126209D01*
X106575000Y-79150000D01*
X106000000Y-79150000D01*
X105981827Y-79153419D01*
X105965136Y-79164160D01*
X105953939Y-79180547D01*
X105950000Y-79200000D01*
X105950000Y-82800000D01*
X105953419Y-82818173D01*
X105964160Y-82834864D01*
X105980547Y-82846061D01*
X106000000Y-82850000D01*
X110200000Y-82850000D01*
X110218173Y-82846581D01*
X110234864Y-82835840D01*
X110246061Y-82819453D01*
X110250000Y-82800000D01*
X110250000Y-82630330D01*
X111068461Y-83448791D01*
X110975000Y-83448791D01*
X110935189Y-83451966D01*
X110867664Y-83472877D01*
X110808638Y-83511772D01*
X110762786Y-83565571D01*
X110733737Y-83630015D01*
X110725357Y-83688981D01*
X110688228Y-83651592D01*
X110615066Y-83602243D01*
X110533712Y-83568045D01*
X110447265Y-83550300D01*
X110359018Y-83549684D01*
X110272332Y-83566220D01*
X110190508Y-83599279D01*
X110116664Y-83647601D01*
X110053612Y-83709346D01*
X110003754Y-83782162D01*
X109968989Y-83863275D01*
X109950641Y-83949596D01*
X109949409Y-84037837D01*
X109965340Y-84124637D01*
X109997826Y-84206689D01*
X110045632Y-84280869D01*
X110106935Y-84344350D01*
X110179401Y-84394715D01*
X110260270Y-84430046D01*
X110310833Y-84441163D01*
X110384835Y-84515165D01*
X110411575Y-84537129D01*
X110438137Y-84559418D01*
X110439868Y-84560370D01*
X110441389Y-84561619D01*
X110471861Y-84577958D01*
X110502272Y-84594676D01*
X110504155Y-84595273D01*
X110505889Y-84596203D01*
X110538953Y-84606312D01*
X110572033Y-84616805D01*
X110573995Y-84617025D01*
X110575879Y-84617601D01*
X110610353Y-84621103D01*
X110644764Y-84624963D01*
X110648614Y-84624990D01*
X110648691Y-84624998D01*
X110648762Y-84624991D01*
X110650000Y-84625000D01*
X110723791Y-84625000D01*
X110723791Y-84800000D01*
X110726966Y-84839811D01*
X110747877Y-84907336D01*
X110786772Y-84966362D01*
X110840571Y-85012214D01*
X110868936Y-85025000D01*
X110451209Y-85025000D01*
X110451209Y-84950000D01*
X110448034Y-84910189D01*
X110427123Y-84842664D01*
X110388228Y-84783638D01*
X110334429Y-84737786D01*
X110269985Y-84708737D01*
X110200000Y-84698791D01*
X109979121Y-84698791D01*
X108415165Y-83134835D01*
X108388425Y-83112871D01*
X108361863Y-83090582D01*
X108360132Y-83089630D01*
X108358611Y-83088381D01*
X108328104Y-83072023D01*
X108297728Y-83055324D01*
X108295849Y-83054728D01*
X108294111Y-83053796D01*
X108261001Y-83043674D01*
X108227967Y-83033195D01*
X108226005Y-83032975D01*
X108224121Y-83032399D01*
X108189647Y-83028897D01*
X108155236Y-83025037D01*
X108151386Y-83025010D01*
X108151309Y-83025002D01*
X108151238Y-83025009D01*
X108150000Y-83025000D01*
X105555330Y-83025000D01*
X104275000Y-81744670D01*
X104275000Y-80400000D01*
X104271624Y-80365572D01*
X104268601Y-80331018D01*
X104268050Y-80329122D01*
X104267858Y-80327162D01*
X104257848Y-80294008D01*
X104248182Y-80260737D01*
X104247275Y-80258988D01*
X104246705Y-80257099D01*
X104230429Y-80226489D01*
X104214501Y-80195761D01*
X104213272Y-80194222D01*
X104212345Y-80192478D01*
X104190406Y-80165578D01*
X104168841Y-80138564D01*
X104166138Y-80135822D01*
X104166089Y-80135762D01*
X104166034Y-80135716D01*
X104165165Y-80134835D01*
X103805165Y-79774835D01*
X103778425Y-79752871D01*
X103751863Y-79730582D01*
X103750132Y-79729630D01*
X103748611Y-79728381D01*
X103718104Y-79712023D01*
X103687728Y-79695324D01*
X103685849Y-79694728D01*
X103684111Y-79693796D01*
X103651001Y-79683674D01*
X103617967Y-79673195D01*
X103616005Y-79672975D01*
X103614121Y-79672399D01*
X103579647Y-79668897D01*
X103545236Y-79665037D01*
X103541386Y-79665010D01*
X103541309Y-79665002D01*
X103541238Y-79665009D01*
X103540000Y-79665000D01*
X103036133Y-79665000D01*
X103025224Y-79627933D01*
X102925763Y-79437680D01*
X102791242Y-79270370D01*
X102626786Y-79132375D01*
X102438658Y-79028951D01*
X102234025Y-78964038D01*
X102020680Y-78940107D01*
X102005322Y-78940000D01*
X101994678Y-78940000D01*
X101781020Y-78960949D01*
X101575501Y-79022999D01*
X101385947Y-79123787D01*
X101219580Y-79259472D01*
X101082737Y-79424888D01*
X101050000Y-79485434D01*
X101050000Y-78577733D01*
X101080015Y-78591263D01*
X101150000Y-78601209D01*
X102850000Y-78601209D01*
X102889811Y-78598034D01*
X102957336Y-78577123D01*
X103016362Y-78538228D01*
X103062214Y-78484429D01*
X103091263Y-78419985D01*
X103101209Y-78350000D01*
X103101209Y-77875000D01*
X106298791Y-77875000D01*
X106301966Y-77914811D01*
X106301966Y-77914811D01*
G37*
X106301966Y-77914811D02*
X106322877Y-77982336D01*
X106361772Y-78041362D01*
X106415571Y-78087214D01*
X106480015Y-78116263D01*
X106550000Y-78126209D01*
X106575000Y-78126209D01*
X106575000Y-79150000D01*
X106000000Y-79150000D01*
X105981827Y-79153419D01*
X105965136Y-79164160D01*
X105953939Y-79180547D01*
X105950000Y-79200000D01*
X105950000Y-82800000D01*
X105953419Y-82818173D01*
X105964160Y-82834864D01*
X105980547Y-82846061D01*
X106000000Y-82850000D01*
X110200000Y-82850000D01*
X110218173Y-82846581D01*
X110234864Y-82835840D01*
X110246061Y-82819453D01*
X110250000Y-82800000D01*
X110250000Y-82630330D01*
X111068461Y-83448791D01*
X110975000Y-83448791D01*
X110935189Y-83451966D01*
X110867664Y-83472877D01*
X110808638Y-83511772D01*
X110762786Y-83565571D01*
X110733737Y-83630015D01*
X110725357Y-83688981D01*
X110688228Y-83651592D01*
X110615066Y-83602243D01*
X110533712Y-83568045D01*
X110447265Y-83550300D01*
X110359018Y-83549684D01*
X110272332Y-83566220D01*
X110190508Y-83599279D01*
X110116664Y-83647601D01*
X110053612Y-83709346D01*
X110003754Y-83782162D01*
X109968989Y-83863275D01*
X109950641Y-83949596D01*
X109949409Y-84037837D01*
X109965340Y-84124637D01*
X109997826Y-84206689D01*
X110045632Y-84280869D01*
X110106935Y-84344350D01*
X110179401Y-84394715D01*
X110260270Y-84430046D01*
X110310833Y-84441163D01*
X110384835Y-84515165D01*
X110411575Y-84537129D01*
X110438137Y-84559418D01*
X110439868Y-84560370D01*
X110441389Y-84561619D01*
X110471861Y-84577958D01*
X110502272Y-84594676D01*
X110504155Y-84595273D01*
X110505889Y-84596203D01*
X110538953Y-84606312D01*
X110572033Y-84616805D01*
X110573995Y-84617025D01*
X110575879Y-84617601D01*
X110610353Y-84621103D01*
X110644764Y-84624963D01*
X110648614Y-84624990D01*
X110648691Y-84624998D01*
X110648762Y-84624991D01*
X110650000Y-84625000D01*
X110723791Y-84625000D01*
X110723791Y-84800000D01*
X110726966Y-84839811D01*
X110747877Y-84907336D01*
X110786772Y-84966362D01*
X110840571Y-85012214D01*
X110868936Y-85025000D01*
X110451209Y-85025000D01*
X110451209Y-84950000D01*
X110448034Y-84910189D01*
X110427123Y-84842664D01*
X110388228Y-84783638D01*
X110334429Y-84737786D01*
X110269985Y-84708737D01*
X110200000Y-84698791D01*
X109979121Y-84698791D01*
X108415165Y-83134835D01*
X108388425Y-83112871D01*
X108361863Y-83090582D01*
X108360132Y-83089630D01*
X108358611Y-83088381D01*
X108328104Y-83072023D01*
X108297728Y-83055324D01*
X108295849Y-83054728D01*
X108294111Y-83053796D01*
X108261001Y-83043674D01*
X108227967Y-83033195D01*
X108226005Y-83032975D01*
X108224121Y-83032399D01*
X108189647Y-83028897D01*
X108155236Y-83025037D01*
X108151386Y-83025010D01*
X108151309Y-83025002D01*
X108151238Y-83025009D01*
X108150000Y-83025000D01*
X105555330Y-83025000D01*
X104275000Y-81744670D01*
X104275000Y-80400000D01*
X104271624Y-80365572D01*
X104268601Y-80331018D01*
X104268050Y-80329122D01*
X104267858Y-80327162D01*
X104257848Y-80294008D01*
X104248182Y-80260737D01*
X104247275Y-80258988D01*
X104246705Y-80257099D01*
X104230429Y-80226489D01*
X104214501Y-80195761D01*
X104213272Y-80194222D01*
X104212345Y-80192478D01*
X104190406Y-80165578D01*
X104168841Y-80138564D01*
X104166138Y-80135822D01*
X104166089Y-80135762D01*
X104166034Y-80135716D01*
X104165165Y-80134835D01*
X103805165Y-79774835D01*
X103778425Y-79752871D01*
X103751863Y-79730582D01*
X103750132Y-79729630D01*
X103748611Y-79728381D01*
X103718104Y-79712023D01*
X103687728Y-79695324D01*
X103685849Y-79694728D01*
X103684111Y-79693796D01*
X103651001Y-79683674D01*
X103617967Y-79673195D01*
X103616005Y-79672975D01*
X103614121Y-79672399D01*
X103579647Y-79668897D01*
X103545236Y-79665037D01*
X103541386Y-79665010D01*
X103541309Y-79665002D01*
X103541238Y-79665009D01*
X103540000Y-79665000D01*
X103036133Y-79665000D01*
X103025224Y-79627933D01*
X102925763Y-79437680D01*
X102791242Y-79270370D01*
X102626786Y-79132375D01*
X102438658Y-79028951D01*
X102234025Y-78964038D01*
X102020680Y-78940107D01*
X102005322Y-78940000D01*
X101994678Y-78940000D01*
X101781020Y-78960949D01*
X101575501Y-79022999D01*
X101385947Y-79123787D01*
X101219580Y-79259472D01*
X101082737Y-79424888D01*
X101050000Y-79485434D01*
X101050000Y-78577733D01*
X101080015Y-78591263D01*
X101150000Y-78601209D01*
X102850000Y-78601209D01*
X102889811Y-78598034D01*
X102957336Y-78577123D01*
X103016362Y-78538228D01*
X103062214Y-78484429D01*
X103091263Y-78419985D01*
X103101209Y-78350000D01*
X103101209Y-77875000D01*
X106298791Y-77875000D01*
X106301966Y-77914811D01*
G36*
X115814835Y-78845165D02*
X115841553Y-78867111D01*
X115868137Y-78889418D01*
X115869871Y-78890371D01*
X115871390Y-78891619D01*
X115901875Y-78907966D01*
X115932272Y-78924676D01*
X115934151Y-78925272D01*
X115935889Y-78926204D01*
X115969040Y-78936339D01*
X116002033Y-78946805D01*
X116003990Y-78947025D01*
X116005879Y-78947602D01*
X116040402Y-78951109D01*
X116074764Y-78954963D01*
X116078614Y-78954990D01*
X116078691Y-78954998D01*
X116078762Y-78954991D01*
X116080000Y-78955000D01*
X117063867Y-78955000D01*
X117074776Y-78992067D01*
X117174237Y-79182320D01*
X117308758Y-79349630D01*
X117473214Y-79487625D01*
X117661342Y-79591049D01*
X117865975Y-79655962D01*
X118079320Y-79679893D01*
X118094678Y-79680000D01*
X118105322Y-79680000D01*
X118318980Y-79659051D01*
X118524499Y-79597001D01*
X118714053Y-79496213D01*
X118880420Y-79360528D01*
X118950000Y-79276420D01*
X118950000Y-80430158D01*
X118882627Y-80347018D01*
X118716788Y-80209188D01*
X118527246Y-80106360D01*
X118321285Y-80042485D01*
X118150000Y-80083634D01*
X118150000Y-81070000D01*
X118170000Y-81070000D01*
X118170000Y-81170000D01*
X118150000Y-81170000D01*
X118150000Y-82156366D01*
X118321285Y-82197515D01*
X118527246Y-82133640D01*
X118716788Y-82030812D01*
X118882627Y-81892982D01*
X118950000Y-81809842D01*
X118950000Y-82963450D01*
X118891242Y-82890370D01*
X118726786Y-82752375D01*
X118538658Y-82648951D01*
X118334025Y-82584038D01*
X118120680Y-82560107D01*
X118105322Y-82560000D01*
X118094678Y-82560000D01*
X117881020Y-82580949D01*
X117675501Y-82642999D01*
X117485947Y-82743787D01*
X117319580Y-82879472D01*
X117182737Y-83044888D01*
X117080629Y-83233733D01*
X117064759Y-83285000D01*
X114515330Y-83285000D01*
X114430330Y-83200000D01*
X114487500Y-83200000D01*
X114550000Y-83137500D01*
X114550000Y-82600000D01*
X114650000Y-82600000D01*
X114650000Y-83137500D01*
X114712500Y-83200000D01*
X114999623Y-83200000D01*
X115047922Y-83190393D01*
X115093419Y-83171547D01*
X115134366Y-83144188D01*
X115169188Y-83109366D01*
X115196547Y-83068420D01*
X115215393Y-83022922D01*
X115225000Y-82974623D01*
X115225000Y-82662500D01*
X115162500Y-82600000D01*
X114650000Y-82600000D01*
X114550000Y-82600000D01*
X114037500Y-82600000D01*
X113975000Y-82662500D01*
X113975000Y-82744670D01*
X113925001Y-82694671D01*
X113925001Y-82125377D01*
X113975000Y-82125377D01*
X113975000Y-82437500D01*
X114037500Y-82500000D01*
X114550000Y-82500000D01*
X114550000Y-81962500D01*
X114650000Y-81962500D01*
X114650000Y-82500000D01*
X115162500Y-82500000D01*
X115225000Y-82437500D01*
X115225000Y-82125377D01*
X115215393Y-82077078D01*
X115196547Y-82031580D01*
X115169188Y-81990634D01*
X115134366Y-81955812D01*
X115093419Y-81928453D01*
X115047922Y-81909607D01*
X114999623Y-81900000D01*
X114712500Y-81900000D01*
X114650000Y-81962500D01*
X114550000Y-81962500D01*
X114487500Y-81900000D01*
X114200377Y-81900000D01*
X114152078Y-81909607D01*
X114106581Y-81928453D01*
X114065634Y-81955812D01*
X114030812Y-81990634D01*
X114003453Y-82031580D01*
X113984607Y-82077078D01*
X113975000Y-82125377D01*
X113925001Y-82125377D01*
X113925001Y-80784001D01*
X113921621Y-80749532D01*
X113918602Y-80715019D01*
X113918051Y-80713123D01*
X113917859Y-80711163D01*
X113907849Y-80678009D01*
X113898183Y-80644738D01*
X113897276Y-80642989D01*
X113896706Y-80641100D01*
X113880430Y-80610490D01*
X113864502Y-80579762D01*
X113863273Y-80578222D01*
X113862346Y-80576479D01*
X113840421Y-80549596D01*
X113818842Y-80522564D01*
X113816138Y-80519821D01*
X113816090Y-80519763D01*
X113816036Y-80519718D01*
X113815166Y-80518836D01*
X113491000Y-80194670D01*
X113491000Y-80108507D01*
X113492209Y-80100000D01*
X113492209Y-79196537D01*
X114225000Y-79929328D01*
X114225000Y-80398791D01*
X114185189Y-80401966D01*
X114117664Y-80422877D01*
X114058638Y-80461772D01*
X114012786Y-80515571D01*
X113983737Y-80580015D01*
X113973791Y-80650000D01*
X113973791Y-81450000D01*
X113976966Y-81489811D01*
X113997877Y-81557336D01*
X114036772Y-81616362D01*
X114090571Y-81662214D01*
X114155015Y-81691263D01*
X114225000Y-81701209D01*
X114975000Y-81701209D01*
X115014811Y-81698034D01*
X115082336Y-81677123D01*
X115141362Y-81638228D01*
X115187214Y-81584429D01*
X115216263Y-81519985D01*
X115226209Y-81450000D01*
X115226209Y-81341284D01*
X117022488Y-81341284D01*
X117081140Y-81534644D01*
X117181610Y-81725446D01*
X117317373Y-81892982D01*
X117483212Y-82030812D01*
X117672754Y-82133640D01*
X117878715Y-82197515D01*
X118050000Y-82156366D01*
X118050000Y-81170000D01*
X117063706Y-81170000D01*
X117022488Y-81341284D01*
X115226209Y-81341284D01*
X115226209Y-80898716D01*
X117022488Y-80898716D01*
X117063706Y-81070000D01*
X118050000Y-81070000D01*
X118050000Y-80083634D01*
X117878715Y-80042485D01*
X117672754Y-80106360D01*
X117483212Y-80209188D01*
X117317373Y-80347018D01*
X117181610Y-80514554D01*
X117081140Y-80705356D01*
X117022488Y-80898716D01*
X115226209Y-80898716D01*
X115226209Y-80650000D01*
X115223034Y-80610189D01*
X115202123Y-80542664D01*
X115163228Y-80483638D01*
X115109429Y-80437786D01*
X115044985Y-80408737D01*
X114975000Y-80398791D01*
X114975000Y-79773998D01*
X114971620Y-79739529D01*
X114968601Y-79705016D01*
X114968050Y-79703120D01*
X114967858Y-79701160D01*
X114957848Y-79668006D01*
X114948182Y-79634735D01*
X114947275Y-79632986D01*
X114946705Y-79631097D01*
X114930429Y-79600487D01*
X114914501Y-79569759D01*
X114913272Y-79568219D01*
X114912345Y-79566476D01*
X114890426Y-79539600D01*
X114868841Y-79512561D01*
X114866137Y-79509818D01*
X114866089Y-79509760D01*
X114866035Y-79509715D01*
X114865165Y-79508833D01*
X113706331Y-78349999D01*
X115319669Y-78349999D01*
X115814835Y-78845165D01*
X115814835Y-78845165D01*
G37*
X115814835Y-78845165D02*
X115841553Y-78867111D01*
X115868137Y-78889418D01*
X115869871Y-78890371D01*
X115871390Y-78891619D01*
X115901875Y-78907966D01*
X115932272Y-78924676D01*
X115934151Y-78925272D01*
X115935889Y-78926204D01*
X115969040Y-78936339D01*
X116002033Y-78946805D01*
X116003990Y-78947025D01*
X116005879Y-78947602D01*
X116040402Y-78951109D01*
X116074764Y-78954963D01*
X116078614Y-78954990D01*
X116078691Y-78954998D01*
X116078762Y-78954991D01*
X116080000Y-78955000D01*
X117063867Y-78955000D01*
X117074776Y-78992067D01*
X117174237Y-79182320D01*
X117308758Y-79349630D01*
X117473214Y-79487625D01*
X117661342Y-79591049D01*
X117865975Y-79655962D01*
X118079320Y-79679893D01*
X118094678Y-79680000D01*
X118105322Y-79680000D01*
X118318980Y-79659051D01*
X118524499Y-79597001D01*
X118714053Y-79496213D01*
X118880420Y-79360528D01*
X118950000Y-79276420D01*
X118950000Y-80430158D01*
X118882627Y-80347018D01*
X118716788Y-80209188D01*
X118527246Y-80106360D01*
X118321285Y-80042485D01*
X118150000Y-80083634D01*
X118150000Y-81070000D01*
X118170000Y-81070000D01*
X118170000Y-81170000D01*
X118150000Y-81170000D01*
X118150000Y-82156366D01*
X118321285Y-82197515D01*
X118527246Y-82133640D01*
X118716788Y-82030812D01*
X118882627Y-81892982D01*
X118950000Y-81809842D01*
X118950000Y-82963450D01*
X118891242Y-82890370D01*
X118726786Y-82752375D01*
X118538658Y-82648951D01*
X118334025Y-82584038D01*
X118120680Y-82560107D01*
X118105322Y-82560000D01*
X118094678Y-82560000D01*
X117881020Y-82580949D01*
X117675501Y-82642999D01*
X117485947Y-82743787D01*
X117319580Y-82879472D01*
X117182737Y-83044888D01*
X117080629Y-83233733D01*
X117064759Y-83285000D01*
X114515330Y-83285000D01*
X114430330Y-83200000D01*
X114487500Y-83200000D01*
X114550000Y-83137500D01*
X114550000Y-82600000D01*
X114650000Y-82600000D01*
X114650000Y-83137500D01*
X114712500Y-83200000D01*
X114999623Y-83200000D01*
X115047922Y-83190393D01*
X115093419Y-83171547D01*
X115134366Y-83144188D01*
X115169188Y-83109366D01*
X115196547Y-83068420D01*
X115215393Y-83022922D01*
X115225000Y-82974623D01*
X115225000Y-82662500D01*
X115162500Y-82600000D01*
X114650000Y-82600000D01*
X114550000Y-82600000D01*
X114037500Y-82600000D01*
X113975000Y-82662500D01*
X113975000Y-82744670D01*
X113925001Y-82694671D01*
X113925001Y-82125377D01*
X113975000Y-82125377D01*
X113975000Y-82437500D01*
X114037500Y-82500000D01*
X114550000Y-82500000D01*
X114550000Y-81962500D01*
X114650000Y-81962500D01*
X114650000Y-82500000D01*
X115162500Y-82500000D01*
X115225000Y-82437500D01*
X115225000Y-82125377D01*
X115215393Y-82077078D01*
X115196547Y-82031580D01*
X115169188Y-81990634D01*
X115134366Y-81955812D01*
X115093419Y-81928453D01*
X115047922Y-81909607D01*
X114999623Y-81900000D01*
X114712500Y-81900000D01*
X114650000Y-81962500D01*
X114550000Y-81962500D01*
X114487500Y-81900000D01*
X114200377Y-81900000D01*
X114152078Y-81909607D01*
X114106581Y-81928453D01*
X114065634Y-81955812D01*
X114030812Y-81990634D01*
X114003453Y-82031580D01*
X113984607Y-82077078D01*
X113975000Y-82125377D01*
X113925001Y-82125377D01*
X113925001Y-80784001D01*
X113921621Y-80749532D01*
X113918602Y-80715019D01*
X113918051Y-80713123D01*
X113917859Y-80711163D01*
X113907849Y-80678009D01*
X113898183Y-80644738D01*
X113897276Y-80642989D01*
X113896706Y-80641100D01*
X113880430Y-80610490D01*
X113864502Y-80579762D01*
X113863273Y-80578222D01*
X113862346Y-80576479D01*
X113840421Y-80549596D01*
X113818842Y-80522564D01*
X113816138Y-80519821D01*
X113816090Y-80519763D01*
X113816036Y-80519718D01*
X113815166Y-80518836D01*
X113491000Y-80194670D01*
X113491000Y-80108507D01*
X113492209Y-80100000D01*
X113492209Y-79196537D01*
X114225000Y-79929328D01*
X114225000Y-80398791D01*
X114185189Y-80401966D01*
X114117664Y-80422877D01*
X114058638Y-80461772D01*
X114012786Y-80515571D01*
X113983737Y-80580015D01*
X113973791Y-80650000D01*
X113973791Y-81450000D01*
X113976966Y-81489811D01*
X113997877Y-81557336D01*
X114036772Y-81616362D01*
X114090571Y-81662214D01*
X114155015Y-81691263D01*
X114225000Y-81701209D01*
X114975000Y-81701209D01*
X115014811Y-81698034D01*
X115082336Y-81677123D01*
X115141362Y-81638228D01*
X115187214Y-81584429D01*
X115216263Y-81519985D01*
X115226209Y-81450000D01*
X115226209Y-81341284D01*
X117022488Y-81341284D01*
X117081140Y-81534644D01*
X117181610Y-81725446D01*
X117317373Y-81892982D01*
X117483212Y-82030812D01*
X117672754Y-82133640D01*
X117878715Y-82197515D01*
X118050000Y-82156366D01*
X118050000Y-81170000D01*
X117063706Y-81170000D01*
X117022488Y-81341284D01*
X115226209Y-81341284D01*
X115226209Y-80898716D01*
X117022488Y-80898716D01*
X117063706Y-81070000D01*
X118050000Y-81070000D01*
X118050000Y-80083634D01*
X117878715Y-80042485D01*
X117672754Y-80106360D01*
X117483212Y-80209188D01*
X117317373Y-80347018D01*
X117181610Y-80514554D01*
X117081140Y-80705356D01*
X117022488Y-80898716D01*
X115226209Y-80898716D01*
X115226209Y-80650000D01*
X115223034Y-80610189D01*
X115202123Y-80542664D01*
X115163228Y-80483638D01*
X115109429Y-80437786D01*
X115044985Y-80408737D01*
X114975000Y-80398791D01*
X114975000Y-79773998D01*
X114971620Y-79739529D01*
X114968601Y-79705016D01*
X114968050Y-79703120D01*
X114967858Y-79701160D01*
X114957848Y-79668006D01*
X114948182Y-79634735D01*
X114947275Y-79632986D01*
X114946705Y-79631097D01*
X114930429Y-79600487D01*
X114914501Y-79569759D01*
X114913272Y-79568219D01*
X114912345Y-79566476D01*
X114890426Y-79539600D01*
X114868841Y-79512561D01*
X114866137Y-79509818D01*
X114866089Y-79509760D01*
X114866035Y-79509715D01*
X114865165Y-79508833D01*
X113706331Y-78349999D01*
X115319669Y-78349999D01*
X115814835Y-78845165D01*
G36*
X111850000Y-72547500D02*
X111912500Y-72610000D01*
X112950000Y-72610000D01*
X112950000Y-72590000D01*
X113050000Y-72590000D01*
X113050000Y-72610000D01*
X114087500Y-72610000D01*
X114150000Y-72547500D01*
X114150000Y-71050000D01*
X118950000Y-71050000D01*
X118950000Y-72398791D01*
X117250000Y-72398791D01*
X117210189Y-72401966D01*
X117142664Y-72422877D01*
X117083638Y-72461772D01*
X117037786Y-72515571D01*
X117008737Y-72580015D01*
X116998791Y-72650000D01*
X116998791Y-74350000D01*
X117001966Y-74389811D01*
X117022877Y-74457336D01*
X117061772Y-74516362D01*
X117115571Y-74562214D01*
X117180015Y-74591263D01*
X117250000Y-74601209D01*
X118950000Y-74601209D01*
X118950000Y-75350158D01*
X118882627Y-75267018D01*
X118716788Y-75129188D01*
X118527246Y-75026360D01*
X118321285Y-74962485D01*
X118150000Y-75003634D01*
X118150000Y-75990000D01*
X118170000Y-75990000D01*
X118170000Y-76090000D01*
X118150000Y-76090000D01*
X118150000Y-77076366D01*
X118321285Y-77117515D01*
X118527246Y-77053640D01*
X118716788Y-76950812D01*
X118882627Y-76812982D01*
X118950000Y-76729842D01*
X118950000Y-77883450D01*
X118891242Y-77810370D01*
X118726786Y-77672375D01*
X118538658Y-77568951D01*
X118334025Y-77504038D01*
X118120680Y-77480107D01*
X118105322Y-77480000D01*
X118094678Y-77480000D01*
X117881020Y-77500949D01*
X117675501Y-77562999D01*
X117485947Y-77663787D01*
X117319580Y-77799472D01*
X117182737Y-77964888D01*
X117080629Y-78153733D01*
X117064759Y-78205000D01*
X116235330Y-78205000D01*
X115740164Y-77709834D01*
X115713424Y-77687870D01*
X115686862Y-77665581D01*
X115685131Y-77664629D01*
X115683610Y-77663380D01*
X115653103Y-77647022D01*
X115622727Y-77630323D01*
X115620848Y-77629727D01*
X115619110Y-77628795D01*
X115586000Y-77618673D01*
X115552966Y-77608194D01*
X115551004Y-77607974D01*
X115549120Y-77607398D01*
X115514646Y-77603896D01*
X115480235Y-77600036D01*
X115476385Y-77600009D01*
X115476308Y-77600001D01*
X115476237Y-77600008D01*
X115474999Y-77599999D01*
X112367001Y-77599999D01*
X112332528Y-77603379D01*
X112298019Y-77606398D01*
X112296123Y-77606949D01*
X112294163Y-77607141D01*
X112261009Y-77617151D01*
X112227738Y-77626817D01*
X112225989Y-77627724D01*
X112224100Y-77628294D01*
X112193490Y-77644570D01*
X112162762Y-77660498D01*
X112161223Y-77661727D01*
X112159479Y-77662654D01*
X112132579Y-77684593D01*
X112105565Y-77706158D01*
X112102823Y-77708861D01*
X112102763Y-77708910D01*
X112102717Y-77708965D01*
X112101836Y-77709834D01*
X111469570Y-78342100D01*
X111468601Y-78331018D01*
X111468050Y-78329122D01*
X111467858Y-78327162D01*
X111457848Y-78294008D01*
X111450799Y-78269744D01*
X111460736Y-78238035D01*
X111474963Y-78107068D01*
X111463482Y-77975833D01*
X111426728Y-77849327D01*
X111366103Y-77732368D01*
X111283914Y-77629413D01*
X111277297Y-77622703D01*
X110675000Y-77020406D01*
X110675000Y-76261284D01*
X117022488Y-76261284D01*
X117081140Y-76454644D01*
X117181610Y-76645446D01*
X117317373Y-76812982D01*
X117483212Y-76950812D01*
X117672754Y-77053640D01*
X117878715Y-77117515D01*
X118050000Y-77076366D01*
X118050000Y-76090000D01*
X117063706Y-76090000D01*
X117022488Y-76261284D01*
X110675000Y-76261284D01*
X110675000Y-75818716D01*
X117022488Y-75818716D01*
X117063706Y-75990000D01*
X118050000Y-75990000D01*
X118050000Y-75003634D01*
X117878715Y-74962485D01*
X117672754Y-75026360D01*
X117483212Y-75129188D01*
X117317373Y-75267018D01*
X117181610Y-75434554D01*
X117081140Y-75625356D01*
X117022488Y-75818716D01*
X110675000Y-75818716D01*
X110675000Y-75451209D01*
X110900000Y-75451209D01*
X110939811Y-75448034D01*
X111007336Y-75427123D01*
X111066362Y-75388228D01*
X111112214Y-75334429D01*
X111141263Y-75269985D01*
X111151209Y-75200000D01*
X111151209Y-72772500D01*
X111850000Y-72772500D01*
X111850000Y-75224623D01*
X111859607Y-75272922D01*
X111878453Y-75318419D01*
X111905812Y-75359366D01*
X111940634Y-75394188D01*
X111981580Y-75421547D01*
X112027078Y-75440393D01*
X112075377Y-75450000D01*
X112887500Y-75450000D01*
X112950000Y-75387500D01*
X112950000Y-72710000D01*
X113050000Y-72710000D01*
X113050000Y-75387500D01*
X113112500Y-75450000D01*
X113924623Y-75450000D01*
X113972922Y-75440393D01*
X114018420Y-75421547D01*
X114059366Y-75394188D01*
X114094188Y-75359366D01*
X114121547Y-75318419D01*
X114140393Y-75272922D01*
X114150000Y-75224623D01*
X114150000Y-72772500D01*
X114087500Y-72710000D01*
X113050000Y-72710000D01*
X112950000Y-72710000D01*
X111912500Y-72710000D01*
X111850000Y-72772500D01*
X111151209Y-72772500D01*
X111151209Y-71050000D01*
X111850000Y-71050000D01*
X111850000Y-72547500D01*
X111850000Y-72547500D01*
G37*
X111850000Y-72547500D02*
X111912500Y-72610000D01*
X112950000Y-72610000D01*
X112950000Y-72590000D01*
X113050000Y-72590000D01*
X113050000Y-72610000D01*
X114087500Y-72610000D01*
X114150000Y-72547500D01*
X114150000Y-71050000D01*
X118950000Y-71050000D01*
X118950000Y-72398791D01*
X117250000Y-72398791D01*
X117210189Y-72401966D01*
X117142664Y-72422877D01*
X117083638Y-72461772D01*
X117037786Y-72515571D01*
X117008737Y-72580015D01*
X116998791Y-72650000D01*
X116998791Y-74350000D01*
X117001966Y-74389811D01*
X117022877Y-74457336D01*
X117061772Y-74516362D01*
X117115571Y-74562214D01*
X117180015Y-74591263D01*
X117250000Y-74601209D01*
X118950000Y-74601209D01*
X118950000Y-75350158D01*
X118882627Y-75267018D01*
X118716788Y-75129188D01*
X118527246Y-75026360D01*
X118321285Y-74962485D01*
X118150000Y-75003634D01*
X118150000Y-75990000D01*
X118170000Y-75990000D01*
X118170000Y-76090000D01*
X118150000Y-76090000D01*
X118150000Y-77076366D01*
X118321285Y-77117515D01*
X118527246Y-77053640D01*
X118716788Y-76950812D01*
X118882627Y-76812982D01*
X118950000Y-76729842D01*
X118950000Y-77883450D01*
X118891242Y-77810370D01*
X118726786Y-77672375D01*
X118538658Y-77568951D01*
X118334025Y-77504038D01*
X118120680Y-77480107D01*
X118105322Y-77480000D01*
X118094678Y-77480000D01*
X117881020Y-77500949D01*
X117675501Y-77562999D01*
X117485947Y-77663787D01*
X117319580Y-77799472D01*
X117182737Y-77964888D01*
X117080629Y-78153733D01*
X117064759Y-78205000D01*
X116235330Y-78205000D01*
X115740164Y-77709834D01*
X115713424Y-77687870D01*
X115686862Y-77665581D01*
X115685131Y-77664629D01*
X115683610Y-77663380D01*
X115653103Y-77647022D01*
X115622727Y-77630323D01*
X115620848Y-77629727D01*
X115619110Y-77628795D01*
X115586000Y-77618673D01*
X115552966Y-77608194D01*
X115551004Y-77607974D01*
X115549120Y-77607398D01*
X115514646Y-77603896D01*
X115480235Y-77600036D01*
X115476385Y-77600009D01*
X115476308Y-77600001D01*
X115476237Y-77600008D01*
X115474999Y-77599999D01*
X112367001Y-77599999D01*
X112332528Y-77603379D01*
X112298019Y-77606398D01*
X112296123Y-77606949D01*
X112294163Y-77607141D01*
X112261009Y-77617151D01*
X112227738Y-77626817D01*
X112225989Y-77627724D01*
X112224100Y-77628294D01*
X112193490Y-77644570D01*
X112162762Y-77660498D01*
X112161223Y-77661727D01*
X112159479Y-77662654D01*
X112132579Y-77684593D01*
X112105565Y-77706158D01*
X112102823Y-77708861D01*
X112102763Y-77708910D01*
X112102717Y-77708965D01*
X112101836Y-77709834D01*
X111469570Y-78342100D01*
X111468601Y-78331018D01*
X111468050Y-78329122D01*
X111467858Y-78327162D01*
X111457848Y-78294008D01*
X111450799Y-78269744D01*
X111460736Y-78238035D01*
X111474963Y-78107068D01*
X111463482Y-77975833D01*
X111426728Y-77849327D01*
X111366103Y-77732368D01*
X111283914Y-77629413D01*
X111277297Y-77622703D01*
X110675000Y-77020406D01*
X110675000Y-76261284D01*
X117022488Y-76261284D01*
X117081140Y-76454644D01*
X117181610Y-76645446D01*
X117317373Y-76812982D01*
X117483212Y-76950812D01*
X117672754Y-77053640D01*
X117878715Y-77117515D01*
X118050000Y-77076366D01*
X118050000Y-76090000D01*
X117063706Y-76090000D01*
X117022488Y-76261284D01*
X110675000Y-76261284D01*
X110675000Y-75818716D01*
X117022488Y-75818716D01*
X117063706Y-75990000D01*
X118050000Y-75990000D01*
X118050000Y-75003634D01*
X117878715Y-74962485D01*
X117672754Y-75026360D01*
X117483212Y-75129188D01*
X117317373Y-75267018D01*
X117181610Y-75434554D01*
X117081140Y-75625356D01*
X117022488Y-75818716D01*
X110675000Y-75818716D01*
X110675000Y-75451209D01*
X110900000Y-75451209D01*
X110939811Y-75448034D01*
X111007336Y-75427123D01*
X111066362Y-75388228D01*
X111112214Y-75334429D01*
X111141263Y-75269985D01*
X111151209Y-75200000D01*
X111151209Y-72772500D01*
X111850000Y-72772500D01*
X111850000Y-75224623D01*
X111859607Y-75272922D01*
X111878453Y-75318419D01*
X111905812Y-75359366D01*
X111940634Y-75394188D01*
X111981580Y-75421547D01*
X112027078Y-75440393D01*
X112075377Y-75450000D01*
X112887500Y-75450000D01*
X112950000Y-75387500D01*
X112950000Y-72710000D01*
X113050000Y-72710000D01*
X113050000Y-75387500D01*
X113112500Y-75450000D01*
X113924623Y-75450000D01*
X113972922Y-75440393D01*
X114018420Y-75421547D01*
X114059366Y-75394188D01*
X114094188Y-75359366D01*
X114121547Y-75318419D01*
X114140393Y-75272922D01*
X114150000Y-75224623D01*
X114150000Y-72772500D01*
X114087500Y-72710000D01*
X113050000Y-72710000D01*
X112950000Y-72710000D01*
X111912500Y-72710000D01*
X111850000Y-72772500D01*
X111151209Y-72772500D01*
X111151209Y-71050000D01*
X111850000Y-71050000D01*
X111850000Y-72547500D01*
M02*
