G04 #@! TF.FileFunction,Legend,Bot*
%FSLAX46Y46*%
G04 Gerber Fmt 4.6, Leading zero omitted, Abs format (unit mm)*
G04 Created by KiCad (PCBNEW 4.0.6-e0-6349~53~ubuntu16.04.1) date Sat Jun 24 14:45:07 2017*
%MOMM*%
%LPD*%
G01*
G04 APERTURE LIST*
%ADD10C,0.100000*%
%ADD11C,0.175000*%
%ADD12C,0.150000*%
%ADD13C,0.002540*%
G04 APERTURE END LIST*
D10*
D11*
X115599999Y-85385714D02*
X115633333Y-85423810D01*
X115733333Y-85461905D01*
X115799999Y-85461905D01*
X115899999Y-85423810D01*
X115966666Y-85347619D01*
X115999999Y-85271429D01*
X116033333Y-85119048D01*
X116033333Y-85004762D01*
X115999999Y-84852381D01*
X115966666Y-84776190D01*
X115899999Y-84700000D01*
X115799999Y-84661905D01*
X115733333Y-84661905D01*
X115633333Y-84700000D01*
X115599999Y-84738095D01*
X115199999Y-85461905D02*
X115266666Y-85423810D01*
X115299999Y-85385714D01*
X115333333Y-85309524D01*
X115333333Y-85080952D01*
X115299999Y-85004762D01*
X115266666Y-84966667D01*
X115199999Y-84928571D01*
X115099999Y-84928571D01*
X115033333Y-84966667D01*
X114999999Y-85004762D01*
X114966666Y-85080952D01*
X114966666Y-85309524D01*
X114999999Y-85385714D01*
X115033333Y-85423810D01*
X115099999Y-85461905D01*
X115199999Y-85461905D01*
X114666666Y-85461905D02*
X114666666Y-84928571D01*
X114666666Y-85080952D02*
X114633333Y-85004762D01*
X114600000Y-84966667D01*
X114533333Y-84928571D01*
X114466666Y-84928571D01*
X114233333Y-85461905D02*
X114233333Y-84928571D01*
X114233333Y-85080952D02*
X114200000Y-85004762D01*
X114166667Y-84966667D01*
X114100000Y-84928571D01*
X114033333Y-84928571D01*
X113800000Y-85385714D02*
X113766667Y-85423810D01*
X113800000Y-85461905D01*
X113833334Y-85423810D01*
X113800000Y-85385714D01*
X113800000Y-85461905D01*
D12*
X118285715Y-89250000D02*
X118314286Y-89283333D01*
X118400000Y-89316667D01*
X118457143Y-89316667D01*
X118542858Y-89283333D01*
X118600000Y-89216667D01*
X118628572Y-89150000D01*
X118657143Y-89016667D01*
X118657143Y-88916667D01*
X118628572Y-88783333D01*
X118600000Y-88716667D01*
X118542858Y-88650000D01*
X118457143Y-88616667D01*
X118400000Y-88616667D01*
X118314286Y-88650000D01*
X118285715Y-88683333D01*
X118028572Y-89316667D02*
X118028572Y-88850000D01*
X118028572Y-88983333D02*
X118000000Y-88916667D01*
X117971429Y-88883333D01*
X117914286Y-88850000D01*
X117857143Y-88850000D01*
X117428571Y-89283333D02*
X117485714Y-89316667D01*
X117600000Y-89316667D01*
X117657143Y-89283333D01*
X117685714Y-89216667D01*
X117685714Y-88950000D01*
X117657143Y-88883333D01*
X117600000Y-88850000D01*
X117485714Y-88850000D01*
X117428571Y-88883333D01*
X117400000Y-88950000D01*
X117400000Y-89016667D01*
X117685714Y-89083333D01*
X116885714Y-89316667D02*
X116885714Y-88950000D01*
X116914285Y-88883333D01*
X116971428Y-88850000D01*
X117085714Y-88850000D01*
X117142857Y-88883333D01*
X116885714Y-89283333D02*
X116942857Y-89316667D01*
X117085714Y-89316667D01*
X117142857Y-89283333D01*
X117171428Y-89216667D01*
X117171428Y-89150000D01*
X117142857Y-89083333D01*
X117085714Y-89050000D01*
X116942857Y-89050000D01*
X116885714Y-89016667D01*
X116685714Y-88850000D02*
X116457143Y-88850000D01*
X116600000Y-88616667D02*
X116600000Y-89216667D01*
X116571428Y-89283333D01*
X116514286Y-89316667D01*
X116457143Y-89316667D01*
X116257143Y-89316667D02*
X116257143Y-88850000D01*
X116257143Y-88616667D02*
X116285714Y-88650000D01*
X116257143Y-88683333D01*
X116228571Y-88650000D01*
X116257143Y-88616667D01*
X116257143Y-88683333D01*
X116028572Y-88850000D02*
X115885715Y-89316667D01*
X115742857Y-88850000D01*
X115285714Y-89283333D02*
X115342857Y-89316667D01*
X115457143Y-89316667D01*
X115514286Y-89283333D01*
X115542857Y-89216667D01*
X115542857Y-88950000D01*
X115514286Y-88883333D01*
X115457143Y-88850000D01*
X115342857Y-88850000D01*
X115285714Y-88883333D01*
X115257143Y-88950000D01*
X115257143Y-89016667D01*
X115542857Y-89083333D01*
X114200000Y-89250000D02*
X114228571Y-89283333D01*
X114314285Y-89316667D01*
X114371428Y-89316667D01*
X114457143Y-89283333D01*
X114514285Y-89216667D01*
X114542857Y-89150000D01*
X114571428Y-89016667D01*
X114571428Y-88916667D01*
X114542857Y-88783333D01*
X114514285Y-88716667D01*
X114457143Y-88650000D01*
X114371428Y-88616667D01*
X114314285Y-88616667D01*
X114228571Y-88650000D01*
X114200000Y-88683333D01*
X113857143Y-89316667D02*
X113914285Y-89283333D01*
X113942857Y-89250000D01*
X113971428Y-89183333D01*
X113971428Y-88983333D01*
X113942857Y-88916667D01*
X113914285Y-88883333D01*
X113857143Y-88850000D01*
X113771428Y-88850000D01*
X113714285Y-88883333D01*
X113685714Y-88916667D01*
X113657143Y-88983333D01*
X113657143Y-89183333D01*
X113685714Y-89250000D01*
X113714285Y-89283333D01*
X113771428Y-89316667D01*
X113857143Y-89316667D01*
X113400000Y-89316667D02*
X113400000Y-88850000D01*
X113400000Y-88916667D02*
X113371428Y-88883333D01*
X113314286Y-88850000D01*
X113228571Y-88850000D01*
X113171428Y-88883333D01*
X113142857Y-88950000D01*
X113142857Y-89316667D01*
X113142857Y-88950000D02*
X113114286Y-88883333D01*
X113057143Y-88850000D01*
X112971428Y-88850000D01*
X112914286Y-88883333D01*
X112885714Y-88950000D01*
X112885714Y-89316667D01*
X112600000Y-89316667D02*
X112600000Y-88850000D01*
X112600000Y-88916667D02*
X112571428Y-88883333D01*
X112514286Y-88850000D01*
X112428571Y-88850000D01*
X112371428Y-88883333D01*
X112342857Y-88950000D01*
X112342857Y-89316667D01*
X112342857Y-88950000D02*
X112314286Y-88883333D01*
X112257143Y-88850000D01*
X112171428Y-88850000D01*
X112114286Y-88883333D01*
X112085714Y-88950000D01*
X112085714Y-89316667D01*
X111714286Y-89316667D02*
X111771428Y-89283333D01*
X111800000Y-89250000D01*
X111828571Y-89183333D01*
X111828571Y-88983333D01*
X111800000Y-88916667D01*
X111771428Y-88883333D01*
X111714286Y-88850000D01*
X111628571Y-88850000D01*
X111571428Y-88883333D01*
X111542857Y-88916667D01*
X111514286Y-88983333D01*
X111514286Y-89183333D01*
X111542857Y-89250000D01*
X111571428Y-89283333D01*
X111628571Y-89316667D01*
X111714286Y-89316667D01*
X111257143Y-88850000D02*
X111257143Y-89316667D01*
X111257143Y-88916667D02*
X111228571Y-88883333D01*
X111171429Y-88850000D01*
X111085714Y-88850000D01*
X111028571Y-88883333D01*
X111000000Y-88950000D01*
X111000000Y-89316667D01*
X110742857Y-89283333D02*
X110685714Y-89316667D01*
X110571429Y-89316667D01*
X110514286Y-89283333D01*
X110485714Y-89216667D01*
X110485714Y-89183333D01*
X110514286Y-89116667D01*
X110571429Y-89083333D01*
X110657143Y-89083333D01*
X110714286Y-89050000D01*
X110742857Y-88983333D01*
X110742857Y-88950000D01*
X110714286Y-88883333D01*
X110657143Y-88850000D01*
X110571429Y-88850000D01*
X110514286Y-88883333D01*
X109485715Y-89316667D02*
X109771429Y-89316667D01*
X109771429Y-88616667D01*
X109285715Y-89316667D02*
X109285715Y-88850000D01*
X109285715Y-88616667D02*
X109314286Y-88650000D01*
X109285715Y-88683333D01*
X109257143Y-88650000D01*
X109285715Y-88616667D01*
X109285715Y-88683333D01*
X108742858Y-89283333D02*
X108800001Y-89316667D01*
X108914287Y-89316667D01*
X108971429Y-89283333D01*
X109000001Y-89250000D01*
X109028572Y-89183333D01*
X109028572Y-88983333D01*
X109000001Y-88916667D01*
X108971429Y-88883333D01*
X108914287Y-88850000D01*
X108800001Y-88850000D01*
X108742858Y-88883333D01*
X108257143Y-89283333D02*
X108314286Y-89316667D01*
X108428572Y-89316667D01*
X108485715Y-89283333D01*
X108514286Y-89216667D01*
X108514286Y-88950000D01*
X108485715Y-88883333D01*
X108428572Y-88850000D01*
X108314286Y-88850000D01*
X108257143Y-88883333D01*
X108228572Y-88950000D01*
X108228572Y-89016667D01*
X108514286Y-89083333D01*
X107971429Y-88850000D02*
X107971429Y-89316667D01*
X107971429Y-88916667D02*
X107942857Y-88883333D01*
X107885715Y-88850000D01*
X107800000Y-88850000D01*
X107742857Y-88883333D01*
X107714286Y-88950000D01*
X107714286Y-89316667D01*
X107457143Y-89283333D02*
X107400000Y-89316667D01*
X107285715Y-89316667D01*
X107228572Y-89283333D01*
X107200000Y-89216667D01*
X107200000Y-89183333D01*
X107228572Y-89116667D01*
X107285715Y-89083333D01*
X107371429Y-89083333D01*
X107428572Y-89050000D01*
X107457143Y-88983333D01*
X107457143Y-88950000D01*
X107428572Y-88883333D01*
X107371429Y-88850000D01*
X107285715Y-88850000D01*
X107228572Y-88883333D01*
X106714286Y-89283333D02*
X106771429Y-89316667D01*
X106885715Y-89316667D01*
X106942858Y-89283333D01*
X106971429Y-89216667D01*
X106971429Y-88950000D01*
X106942858Y-88883333D01*
X106885715Y-88850000D01*
X106771429Y-88850000D01*
X106714286Y-88883333D01*
X106685715Y-88950000D01*
X106685715Y-89016667D01*
X106971429Y-89083333D01*
X105628572Y-89250000D02*
X105657143Y-89283333D01*
X105742857Y-89316667D01*
X105800000Y-89316667D01*
X105885715Y-89283333D01*
X105942857Y-89216667D01*
X105971429Y-89150000D01*
X106000000Y-89016667D01*
X106000000Y-88916667D01*
X105971429Y-88783333D01*
X105942857Y-88716667D01*
X105885715Y-88650000D01*
X105800000Y-88616667D01*
X105742857Y-88616667D01*
X105657143Y-88650000D01*
X105628572Y-88683333D01*
X105028572Y-89250000D02*
X105057143Y-89283333D01*
X105142857Y-89316667D01*
X105200000Y-89316667D01*
X105285715Y-89283333D01*
X105342857Y-89216667D01*
X105371429Y-89150000D01*
X105400000Y-89016667D01*
X105400000Y-88916667D01*
X105371429Y-88783333D01*
X105342857Y-88716667D01*
X105285715Y-88650000D01*
X105200000Y-88616667D01*
X105142857Y-88616667D01*
X105057143Y-88650000D01*
X105028572Y-88683333D01*
X104771429Y-89050000D02*
X104314286Y-89050000D01*
X103828572Y-88950000D02*
X103742858Y-88983333D01*
X103714286Y-89016667D01*
X103685715Y-89083333D01*
X103685715Y-89183333D01*
X103714286Y-89250000D01*
X103742858Y-89283333D01*
X103800000Y-89316667D01*
X104028572Y-89316667D01*
X104028572Y-88616667D01*
X103828572Y-88616667D01*
X103771429Y-88650000D01*
X103742858Y-88683333D01*
X103714286Y-88750000D01*
X103714286Y-88816667D01*
X103742858Y-88883333D01*
X103771429Y-88916667D01*
X103828572Y-88950000D01*
X104028572Y-88950000D01*
X103314286Y-88983333D02*
X103314286Y-89316667D01*
X103514286Y-88616667D02*
X103314286Y-88983333D01*
X103114286Y-88616667D01*
X102914286Y-89050000D02*
X102457143Y-89050000D01*
X102200000Y-89283333D02*
X102114286Y-89316667D01*
X101971429Y-89316667D01*
X101914286Y-89283333D01*
X101885715Y-89250000D01*
X101857143Y-89183333D01*
X101857143Y-89116667D01*
X101885715Y-89050000D01*
X101914286Y-89016667D01*
X101971429Y-88983333D01*
X102085715Y-88950000D01*
X102142857Y-88916667D01*
X102171429Y-88883333D01*
X102200000Y-88816667D01*
X102200000Y-88750000D01*
X102171429Y-88683333D01*
X102142857Y-88650000D01*
X102085715Y-88616667D01*
X101942857Y-88616667D01*
X101857143Y-88650000D01*
X101628571Y-89116667D02*
X101342857Y-89116667D01*
X101685714Y-89316667D02*
X101485714Y-88616667D01*
X101285714Y-89316667D01*
D13*
G36*
X115848740Y-84498980D02*
X115825880Y-84486280D01*
X115772540Y-84453260D01*
X115698880Y-84405000D01*
X115609980Y-84346580D01*
X115523620Y-84285620D01*
X115449960Y-84237360D01*
X115399160Y-84204340D01*
X115378840Y-84194180D01*
X115366140Y-84196720D01*
X115325500Y-84217040D01*
X115264540Y-84250060D01*
X115228980Y-84267840D01*
X115173100Y-84290700D01*
X115145160Y-84295780D01*
X115140080Y-84288160D01*
X115119760Y-84247520D01*
X115089280Y-84173860D01*
X115046100Y-84077340D01*
X114997840Y-83963040D01*
X114947040Y-83841120D01*
X114893700Y-83719200D01*
X114845440Y-83599820D01*
X114802260Y-83493140D01*
X114766700Y-83406780D01*
X114743840Y-83345820D01*
X114736220Y-83320420D01*
X114738760Y-83315340D01*
X114766700Y-83287400D01*
X114814960Y-83251840D01*
X114919100Y-83165480D01*
X115023240Y-83035940D01*
X115086740Y-82888620D01*
X115109600Y-82723520D01*
X115091820Y-82573660D01*
X115030860Y-82428880D01*
X114929260Y-82296800D01*
X114804800Y-82200280D01*
X114662560Y-82136780D01*
X114500000Y-82116460D01*
X114345060Y-82134240D01*
X114197740Y-82192660D01*
X114065660Y-82294260D01*
X114009780Y-82357760D01*
X113933580Y-82489840D01*
X113890400Y-82632080D01*
X113885320Y-82667640D01*
X113892940Y-82825120D01*
X113938660Y-82974980D01*
X114019940Y-83107060D01*
X114134240Y-83218820D01*
X114149480Y-83228980D01*
X114202820Y-83267080D01*
X114238380Y-83295020D01*
X114266320Y-83317880D01*
X114068200Y-83797940D01*
X114035180Y-83874140D01*
X113981840Y-84003680D01*
X113933580Y-84117980D01*
X113892940Y-84206880D01*
X113867540Y-84267840D01*
X113854840Y-84290700D01*
X113854840Y-84293240D01*
X113837060Y-84295780D01*
X113801500Y-84283080D01*
X113732920Y-84250060D01*
X113689740Y-84227200D01*
X113638940Y-84201800D01*
X113616080Y-84194180D01*
X113595760Y-84204340D01*
X113547500Y-84234820D01*
X113476380Y-84283080D01*
X113390020Y-84341500D01*
X113308740Y-84397380D01*
X113235080Y-84445640D01*
X113179200Y-84481200D01*
X113153800Y-84496440D01*
X113148720Y-84496440D01*
X113125860Y-84483740D01*
X113082680Y-84445640D01*
X113016640Y-84384680D01*
X112925200Y-84293240D01*
X112909960Y-84280540D01*
X112833760Y-84201800D01*
X112772800Y-84138300D01*
X112732160Y-84092580D01*
X112716920Y-84069720D01*
X112716920Y-84069720D01*
X112729620Y-84044320D01*
X112765180Y-83990980D01*
X112813440Y-83914780D01*
X112874400Y-83825880D01*
X113034420Y-83594740D01*
X112945520Y-83376300D01*
X112920120Y-83310260D01*
X112884560Y-83228980D01*
X112859160Y-83173100D01*
X112846460Y-83147700D01*
X112823600Y-83137540D01*
X112765180Y-83124840D01*
X112678820Y-83107060D01*
X112574680Y-83086740D01*
X112475620Y-83068960D01*
X112389260Y-83051180D01*
X112323220Y-83038480D01*
X112295280Y-83033400D01*
X112287660Y-83030860D01*
X112282580Y-83015620D01*
X112280040Y-82985140D01*
X112277500Y-82931800D01*
X112274960Y-82847980D01*
X112274960Y-82723520D01*
X112274960Y-82710820D01*
X112277500Y-82593980D01*
X112277500Y-82500000D01*
X112282580Y-82441580D01*
X112285120Y-82416180D01*
X112285120Y-82416180D01*
X112313060Y-82411100D01*
X112376560Y-82395860D01*
X112465460Y-82380620D01*
X112569600Y-82360300D01*
X112577220Y-82357760D01*
X112681360Y-82337440D01*
X112770260Y-82319660D01*
X112831220Y-82304420D01*
X112859160Y-82296800D01*
X112864240Y-82289180D01*
X112884560Y-82248540D01*
X112915040Y-82182500D01*
X112950600Y-82103760D01*
X112983620Y-82019940D01*
X113014100Y-81946280D01*
X113034420Y-81890400D01*
X113039500Y-81865000D01*
X113039500Y-81865000D01*
X113024260Y-81839600D01*
X112988700Y-81786260D01*
X112937900Y-81710060D01*
X112874400Y-81621160D01*
X112871860Y-81613540D01*
X112810900Y-81524640D01*
X112760100Y-81448440D01*
X112729620Y-81395100D01*
X112716920Y-81372240D01*
X112716920Y-81369700D01*
X112737240Y-81344300D01*
X112782960Y-81293500D01*
X112846460Y-81224920D01*
X112925200Y-81146180D01*
X112950600Y-81120780D01*
X113036960Y-81036960D01*
X113095380Y-80981080D01*
X113133480Y-80953140D01*
X113151260Y-80945520D01*
X113151260Y-80945520D01*
X113179200Y-80963300D01*
X113235080Y-80998860D01*
X113311280Y-81052200D01*
X113402720Y-81113160D01*
X113407800Y-81115700D01*
X113496700Y-81176660D01*
X113570360Y-81227460D01*
X113623700Y-81263020D01*
X113646560Y-81275720D01*
X113651640Y-81275720D01*
X113687200Y-81265560D01*
X113750700Y-81242700D01*
X113826900Y-81212220D01*
X113910720Y-81179200D01*
X113984380Y-81148720D01*
X114040260Y-81123320D01*
X114068200Y-81108080D01*
X114068200Y-81105540D01*
X114078360Y-81075060D01*
X114093600Y-81009020D01*
X114111380Y-80917580D01*
X114131700Y-80808360D01*
X114136780Y-80790580D01*
X114157100Y-80683900D01*
X114172340Y-80597540D01*
X114185040Y-80536580D01*
X114192660Y-80511180D01*
X114207900Y-80508640D01*
X114258700Y-80503560D01*
X114337440Y-80501020D01*
X114433960Y-80501020D01*
X114533020Y-80501020D01*
X114632080Y-80503560D01*
X114715900Y-80506100D01*
X114774320Y-80511180D01*
X114799720Y-80516260D01*
X114802260Y-80516260D01*
X114809880Y-80549280D01*
X114825120Y-80615320D01*
X114842900Y-80709300D01*
X114865760Y-80818520D01*
X114868300Y-80836300D01*
X114888620Y-80942980D01*
X114906400Y-81029340D01*
X114919100Y-81090300D01*
X114926720Y-81113160D01*
X114934340Y-81118240D01*
X114980060Y-81136020D01*
X115051180Y-81166500D01*
X115137540Y-81202060D01*
X115340740Y-81283340D01*
X115592200Y-81113160D01*
X115615060Y-81097920D01*
X115703960Y-81036960D01*
X115777620Y-80986160D01*
X115828420Y-80953140D01*
X115851280Y-80942980D01*
X115851280Y-80942980D01*
X115876680Y-80965840D01*
X115927480Y-81011560D01*
X115993520Y-81077600D01*
X116072260Y-81156340D01*
X116130680Y-81212220D01*
X116199260Y-81283340D01*
X116244980Y-81331600D01*
X116267840Y-81362080D01*
X116275460Y-81379860D01*
X116272920Y-81392560D01*
X116257680Y-81417960D01*
X116222120Y-81471300D01*
X116168780Y-81547500D01*
X116107820Y-81636400D01*
X116059560Y-81710060D01*
X116003680Y-81793880D01*
X115968120Y-81854840D01*
X115957960Y-81882780D01*
X115960500Y-81895480D01*
X115978280Y-81943740D01*
X116006220Y-82017400D01*
X116044320Y-82106300D01*
X116130680Y-82304420D01*
X116260220Y-82329820D01*
X116338960Y-82342520D01*
X116450720Y-82365380D01*
X116554860Y-82385700D01*
X116719960Y-82416180D01*
X116725040Y-83018160D01*
X116699640Y-83028320D01*
X116674240Y-83035940D01*
X116613280Y-83048640D01*
X116526920Y-83066420D01*
X116425320Y-83086740D01*
X116338960Y-83101980D01*
X116250060Y-83119760D01*
X116186560Y-83132460D01*
X116158620Y-83137540D01*
X116151000Y-83147700D01*
X116130680Y-83188340D01*
X116097660Y-83256920D01*
X116064640Y-83338200D01*
X116029080Y-83422020D01*
X115998600Y-83500760D01*
X115975740Y-83559180D01*
X115968120Y-83592200D01*
X115980820Y-83615060D01*
X116013840Y-83665860D01*
X116062100Y-83739520D01*
X116120520Y-83825880D01*
X116181480Y-83914780D01*
X116232280Y-83988440D01*
X116265300Y-84041780D01*
X116280540Y-84067180D01*
X116272920Y-84084960D01*
X116239900Y-84125600D01*
X116173860Y-84194180D01*
X116074800Y-84290700D01*
X116059560Y-84305940D01*
X115980820Y-84382140D01*
X115914780Y-84443100D01*
X115869060Y-84483740D01*
X115848740Y-84498980D01*
X115848740Y-84498980D01*
G37*
X115848740Y-84498980D02*
X115825880Y-84486280D01*
X115772540Y-84453260D01*
X115698880Y-84405000D01*
X115609980Y-84346580D01*
X115523620Y-84285620D01*
X115449960Y-84237360D01*
X115399160Y-84204340D01*
X115378840Y-84194180D01*
X115366140Y-84196720D01*
X115325500Y-84217040D01*
X115264540Y-84250060D01*
X115228980Y-84267840D01*
X115173100Y-84290700D01*
X115145160Y-84295780D01*
X115140080Y-84288160D01*
X115119760Y-84247520D01*
X115089280Y-84173860D01*
X115046100Y-84077340D01*
X114997840Y-83963040D01*
X114947040Y-83841120D01*
X114893700Y-83719200D01*
X114845440Y-83599820D01*
X114802260Y-83493140D01*
X114766700Y-83406780D01*
X114743840Y-83345820D01*
X114736220Y-83320420D01*
X114738760Y-83315340D01*
X114766700Y-83287400D01*
X114814960Y-83251840D01*
X114919100Y-83165480D01*
X115023240Y-83035940D01*
X115086740Y-82888620D01*
X115109600Y-82723520D01*
X115091820Y-82573660D01*
X115030860Y-82428880D01*
X114929260Y-82296800D01*
X114804800Y-82200280D01*
X114662560Y-82136780D01*
X114500000Y-82116460D01*
X114345060Y-82134240D01*
X114197740Y-82192660D01*
X114065660Y-82294260D01*
X114009780Y-82357760D01*
X113933580Y-82489840D01*
X113890400Y-82632080D01*
X113885320Y-82667640D01*
X113892940Y-82825120D01*
X113938660Y-82974980D01*
X114019940Y-83107060D01*
X114134240Y-83218820D01*
X114149480Y-83228980D01*
X114202820Y-83267080D01*
X114238380Y-83295020D01*
X114266320Y-83317880D01*
X114068200Y-83797940D01*
X114035180Y-83874140D01*
X113981840Y-84003680D01*
X113933580Y-84117980D01*
X113892940Y-84206880D01*
X113867540Y-84267840D01*
X113854840Y-84290700D01*
X113854840Y-84293240D01*
X113837060Y-84295780D01*
X113801500Y-84283080D01*
X113732920Y-84250060D01*
X113689740Y-84227200D01*
X113638940Y-84201800D01*
X113616080Y-84194180D01*
X113595760Y-84204340D01*
X113547500Y-84234820D01*
X113476380Y-84283080D01*
X113390020Y-84341500D01*
X113308740Y-84397380D01*
X113235080Y-84445640D01*
X113179200Y-84481200D01*
X113153800Y-84496440D01*
X113148720Y-84496440D01*
X113125860Y-84483740D01*
X113082680Y-84445640D01*
X113016640Y-84384680D01*
X112925200Y-84293240D01*
X112909960Y-84280540D01*
X112833760Y-84201800D01*
X112772800Y-84138300D01*
X112732160Y-84092580D01*
X112716920Y-84069720D01*
X112716920Y-84069720D01*
X112729620Y-84044320D01*
X112765180Y-83990980D01*
X112813440Y-83914780D01*
X112874400Y-83825880D01*
X113034420Y-83594740D01*
X112945520Y-83376300D01*
X112920120Y-83310260D01*
X112884560Y-83228980D01*
X112859160Y-83173100D01*
X112846460Y-83147700D01*
X112823600Y-83137540D01*
X112765180Y-83124840D01*
X112678820Y-83107060D01*
X112574680Y-83086740D01*
X112475620Y-83068960D01*
X112389260Y-83051180D01*
X112323220Y-83038480D01*
X112295280Y-83033400D01*
X112287660Y-83030860D01*
X112282580Y-83015620D01*
X112280040Y-82985140D01*
X112277500Y-82931800D01*
X112274960Y-82847980D01*
X112274960Y-82723520D01*
X112274960Y-82710820D01*
X112277500Y-82593980D01*
X112277500Y-82500000D01*
X112282580Y-82441580D01*
X112285120Y-82416180D01*
X112285120Y-82416180D01*
X112313060Y-82411100D01*
X112376560Y-82395860D01*
X112465460Y-82380620D01*
X112569600Y-82360300D01*
X112577220Y-82357760D01*
X112681360Y-82337440D01*
X112770260Y-82319660D01*
X112831220Y-82304420D01*
X112859160Y-82296800D01*
X112864240Y-82289180D01*
X112884560Y-82248540D01*
X112915040Y-82182500D01*
X112950600Y-82103760D01*
X112983620Y-82019940D01*
X113014100Y-81946280D01*
X113034420Y-81890400D01*
X113039500Y-81865000D01*
X113039500Y-81865000D01*
X113024260Y-81839600D01*
X112988700Y-81786260D01*
X112937900Y-81710060D01*
X112874400Y-81621160D01*
X112871860Y-81613540D01*
X112810900Y-81524640D01*
X112760100Y-81448440D01*
X112729620Y-81395100D01*
X112716920Y-81372240D01*
X112716920Y-81369700D01*
X112737240Y-81344300D01*
X112782960Y-81293500D01*
X112846460Y-81224920D01*
X112925200Y-81146180D01*
X112950600Y-81120780D01*
X113036960Y-81036960D01*
X113095380Y-80981080D01*
X113133480Y-80953140D01*
X113151260Y-80945520D01*
X113151260Y-80945520D01*
X113179200Y-80963300D01*
X113235080Y-80998860D01*
X113311280Y-81052200D01*
X113402720Y-81113160D01*
X113407800Y-81115700D01*
X113496700Y-81176660D01*
X113570360Y-81227460D01*
X113623700Y-81263020D01*
X113646560Y-81275720D01*
X113651640Y-81275720D01*
X113687200Y-81265560D01*
X113750700Y-81242700D01*
X113826900Y-81212220D01*
X113910720Y-81179200D01*
X113984380Y-81148720D01*
X114040260Y-81123320D01*
X114068200Y-81108080D01*
X114068200Y-81105540D01*
X114078360Y-81075060D01*
X114093600Y-81009020D01*
X114111380Y-80917580D01*
X114131700Y-80808360D01*
X114136780Y-80790580D01*
X114157100Y-80683900D01*
X114172340Y-80597540D01*
X114185040Y-80536580D01*
X114192660Y-80511180D01*
X114207900Y-80508640D01*
X114258700Y-80503560D01*
X114337440Y-80501020D01*
X114433960Y-80501020D01*
X114533020Y-80501020D01*
X114632080Y-80503560D01*
X114715900Y-80506100D01*
X114774320Y-80511180D01*
X114799720Y-80516260D01*
X114802260Y-80516260D01*
X114809880Y-80549280D01*
X114825120Y-80615320D01*
X114842900Y-80709300D01*
X114865760Y-80818520D01*
X114868300Y-80836300D01*
X114888620Y-80942980D01*
X114906400Y-81029340D01*
X114919100Y-81090300D01*
X114926720Y-81113160D01*
X114934340Y-81118240D01*
X114980060Y-81136020D01*
X115051180Y-81166500D01*
X115137540Y-81202060D01*
X115340740Y-81283340D01*
X115592200Y-81113160D01*
X115615060Y-81097920D01*
X115703960Y-81036960D01*
X115777620Y-80986160D01*
X115828420Y-80953140D01*
X115851280Y-80942980D01*
X115851280Y-80942980D01*
X115876680Y-80965840D01*
X115927480Y-81011560D01*
X115993520Y-81077600D01*
X116072260Y-81156340D01*
X116130680Y-81212220D01*
X116199260Y-81283340D01*
X116244980Y-81331600D01*
X116267840Y-81362080D01*
X116275460Y-81379860D01*
X116272920Y-81392560D01*
X116257680Y-81417960D01*
X116222120Y-81471300D01*
X116168780Y-81547500D01*
X116107820Y-81636400D01*
X116059560Y-81710060D01*
X116003680Y-81793880D01*
X115968120Y-81854840D01*
X115957960Y-81882780D01*
X115960500Y-81895480D01*
X115978280Y-81943740D01*
X116006220Y-82017400D01*
X116044320Y-82106300D01*
X116130680Y-82304420D01*
X116260220Y-82329820D01*
X116338960Y-82342520D01*
X116450720Y-82365380D01*
X116554860Y-82385700D01*
X116719960Y-82416180D01*
X116725040Y-83018160D01*
X116699640Y-83028320D01*
X116674240Y-83035940D01*
X116613280Y-83048640D01*
X116526920Y-83066420D01*
X116425320Y-83086740D01*
X116338960Y-83101980D01*
X116250060Y-83119760D01*
X116186560Y-83132460D01*
X116158620Y-83137540D01*
X116151000Y-83147700D01*
X116130680Y-83188340D01*
X116097660Y-83256920D01*
X116064640Y-83338200D01*
X116029080Y-83422020D01*
X115998600Y-83500760D01*
X115975740Y-83559180D01*
X115968120Y-83592200D01*
X115980820Y-83615060D01*
X116013840Y-83665860D01*
X116062100Y-83739520D01*
X116120520Y-83825880D01*
X116181480Y-83914780D01*
X116232280Y-83988440D01*
X116265300Y-84041780D01*
X116280540Y-84067180D01*
X116272920Y-84084960D01*
X116239900Y-84125600D01*
X116173860Y-84194180D01*
X116074800Y-84290700D01*
X116059560Y-84305940D01*
X115980820Y-84382140D01*
X115914780Y-84443100D01*
X115869060Y-84483740D01*
X115848740Y-84498980D01*
D10*
G36*
X116050000Y-88250000D02*
X104050000Y-88250000D01*
X104050000Y-85750000D01*
X116050000Y-85750000D01*
X116050000Y-88250000D01*
X116050000Y-88250000D01*
G37*
X116050000Y-88250000D02*
X104050000Y-88250000D01*
X104050000Y-85750000D01*
X116050000Y-85750000D01*
X116050000Y-88250000D01*
M02*
