G04 #@! TF.FileFunction,Copper,L2,Bot,Signal*
%FSLAX46Y46*%
G04 Gerber Fmt 4.6, Leading zero omitted, Abs format (unit mm)*
G04 Created by KiCad (PCBNEW 4.0.6-e0-6349~53~ubuntu16.04.1) date Sat Jun 24 14:45:07 2017*
%MOMM*%
%LPD*%
G01*
G04 APERTURE LIST*
%ADD10C,0.100000*%
%ADD11C,0.200000*%
%ADD12R,1.700000X1.700000*%
%ADD13O,1.700000X1.700000*%
%ADD14R,1.800000X5.080000*%
%ADD15C,0.300000*%
%ADD16C,0.400000*%
%ADD17C,0.250000*%
G04 APERTURE END LIST*
D10*
D11*
X111600000Y-78100000D03*
X111500000Y-77600000D03*
X111100000Y-77200000D03*
X110800000Y-76800000D03*
X110800000Y-76200000D03*
X110800000Y-75600000D03*
X109200000Y-77300000D03*
X109200000Y-75600000D03*
X109200000Y-76200000D03*
X109200000Y-76800000D03*
X109300000Y-77800000D03*
X109700000Y-78300000D03*
X110100000Y-78700000D03*
X110500000Y-79200000D03*
X110500000Y-79800000D03*
X110500000Y-80400000D03*
X110800000Y-81100000D03*
X111000000Y-81600000D03*
X111400000Y-81200000D03*
D12*
X102000000Y-77500000D03*
D13*
X102000000Y-80040000D03*
X102000000Y-82580000D03*
X102000000Y-85120000D03*
D14*
X113000000Y-72660000D03*
D15*
X113000000Y-74700000D03*
X113000000Y-70700000D03*
X112500000Y-71700000D03*
X113500000Y-71700000D03*
X113000000Y-72700000D03*
X112500000Y-73700000D03*
X113500000Y-73700000D03*
X107000000Y-74700000D03*
X107000000Y-70700000D03*
X106500000Y-71700000D03*
X107500000Y-71700000D03*
X107000000Y-72700000D03*
X106500000Y-73700000D03*
X107500000Y-73700000D03*
D14*
X107000000Y-72660000D03*
D12*
X118100000Y-73500000D03*
D13*
X118100000Y-76040000D03*
X118100000Y-78580000D03*
X118100000Y-81120000D03*
X118100000Y-83660000D03*
X118100000Y-86200000D03*
D11*
X111800000Y-80700000D03*
D16*
X112600000Y-78500000D03*
X110400000Y-84000000D03*
X107600000Y-84000000D03*
X104078768Y-84021232D03*
X109300000Y-83200000D03*
X111100000Y-80600000D03*
D17*
X112600000Y-80700000D02*
X110400000Y-82900000D01*
X110400000Y-82900000D02*
X110400000Y-84000000D01*
X112600000Y-78500000D02*
X112600000Y-80700000D01*
X110400000Y-84000000D02*
X107600000Y-84000000D01*
X107600000Y-84000000D02*
X104100000Y-84000000D01*
X104100000Y-84000000D02*
X104078768Y-84021232D01*
X102000000Y-77500000D02*
X103100000Y-77500000D01*
X103100000Y-77500000D02*
X104078768Y-78478768D01*
X104078768Y-78478768D02*
X104078768Y-84021232D01*
X116822998Y-73500000D02*
X118100000Y-73500000D01*
X111100000Y-80600000D02*
X111100000Y-79222998D01*
X111100000Y-79222998D02*
X116822998Y-73500000D01*
D10*
G36*
X116998791Y-74350000D02*
X117001966Y-74389811D01*
X117022877Y-74457336D01*
X117061772Y-74516362D01*
X117115571Y-74562214D01*
X117180015Y-74591263D01*
X117250000Y-74601209D01*
X118950000Y-74601209D01*
X118950000Y-75350158D01*
X118882627Y-75267018D01*
X118716788Y-75129188D01*
X118527246Y-75026360D01*
X118321285Y-74962485D01*
X118150000Y-75003634D01*
X118150000Y-75990000D01*
X118170000Y-75990000D01*
X118170000Y-76090000D01*
X118150000Y-76090000D01*
X118150000Y-77076366D01*
X118321285Y-77117515D01*
X118527246Y-77053640D01*
X118716788Y-76950812D01*
X118882627Y-76812982D01*
X118950000Y-76729842D01*
X118950000Y-77883450D01*
X118891242Y-77810370D01*
X118726786Y-77672375D01*
X118538658Y-77568951D01*
X118334025Y-77504038D01*
X118120680Y-77480107D01*
X118105322Y-77480000D01*
X118094678Y-77480000D01*
X117881020Y-77500949D01*
X117675501Y-77562999D01*
X117485947Y-77663787D01*
X117319580Y-77799472D01*
X117182737Y-77964888D01*
X117080629Y-78153733D01*
X117017145Y-78358814D01*
X116994705Y-78572321D01*
X117014162Y-78786119D01*
X117074776Y-78992067D01*
X117174237Y-79182320D01*
X117308758Y-79349630D01*
X117473214Y-79487625D01*
X117661342Y-79591049D01*
X117865975Y-79655962D01*
X118079320Y-79679893D01*
X118094678Y-79680000D01*
X118105322Y-79680000D01*
X118318980Y-79659051D01*
X118524499Y-79597001D01*
X118714053Y-79496213D01*
X118880420Y-79360528D01*
X118950000Y-79276420D01*
X118950000Y-80430158D01*
X118882627Y-80347018D01*
X118716788Y-80209188D01*
X118527246Y-80106360D01*
X118321285Y-80042485D01*
X118150000Y-80083634D01*
X118150000Y-81070000D01*
X118170000Y-81070000D01*
X118170000Y-81170000D01*
X118150000Y-81170000D01*
X118150000Y-82156366D01*
X118321285Y-82197515D01*
X118527246Y-82133640D01*
X118716788Y-82030812D01*
X118882627Y-81892982D01*
X118950000Y-81809842D01*
X118950000Y-82963450D01*
X118891242Y-82890370D01*
X118726786Y-82752375D01*
X118538658Y-82648951D01*
X118334025Y-82584038D01*
X118120680Y-82560107D01*
X118105322Y-82560000D01*
X118094678Y-82560000D01*
X117881020Y-82580949D01*
X117675501Y-82642999D01*
X117485947Y-82743787D01*
X117319580Y-82879472D01*
X117182737Y-83044888D01*
X117080629Y-83233733D01*
X117017145Y-83438814D01*
X116994705Y-83652321D01*
X117014162Y-83866119D01*
X117074776Y-84072067D01*
X117174237Y-84262320D01*
X117308758Y-84429630D01*
X117473214Y-84567625D01*
X117661342Y-84671049D01*
X117865975Y-84735962D01*
X118079320Y-84759893D01*
X118094678Y-84760000D01*
X118105322Y-84760000D01*
X118318980Y-84739051D01*
X118524499Y-84677001D01*
X118714053Y-84576213D01*
X118880420Y-84440528D01*
X118950000Y-84356420D01*
X118950000Y-85510158D01*
X118882627Y-85427018D01*
X118716788Y-85289188D01*
X118527246Y-85186360D01*
X118321285Y-85122485D01*
X118150000Y-85163634D01*
X118150000Y-86150000D01*
X118170000Y-86150000D01*
X118170000Y-86250000D01*
X118150000Y-86250000D01*
X118150000Y-87236366D01*
X118321285Y-87277515D01*
X118527246Y-87213640D01*
X118716788Y-87110812D01*
X118882627Y-86972982D01*
X118950000Y-86889842D01*
X118950000Y-88949925D01*
X101050000Y-88949925D01*
X101050000Y-86421284D01*
X117022488Y-86421284D01*
X117081140Y-86614644D01*
X117181610Y-86805446D01*
X117317373Y-86972982D01*
X117483212Y-87110812D01*
X117672754Y-87213640D01*
X117878715Y-87277515D01*
X118050000Y-87236366D01*
X118050000Y-86250000D01*
X117063706Y-86250000D01*
X117022488Y-86421284D01*
X101050000Y-86421284D01*
X101050000Y-85665416D01*
X101081610Y-85725446D01*
X101217373Y-85892982D01*
X101383212Y-86030812D01*
X101572754Y-86133640D01*
X101778715Y-86197515D01*
X101950000Y-86156366D01*
X101950000Y-85170000D01*
X102050000Y-85170000D01*
X102050000Y-86156366D01*
X102221285Y-86197515D01*
X102427246Y-86133640D01*
X102616788Y-86030812D01*
X102679470Y-85978716D01*
X117022488Y-85978716D01*
X117063706Y-86150000D01*
X118050000Y-86150000D01*
X118050000Y-85163634D01*
X117878715Y-85122485D01*
X117672754Y-85186360D01*
X117483212Y-85289188D01*
X117317373Y-85427018D01*
X117181610Y-85594554D01*
X117081140Y-85785356D01*
X117022488Y-85978716D01*
X102679470Y-85978716D01*
X102782627Y-85892982D01*
X102918390Y-85725446D01*
X103018860Y-85534644D01*
X103077512Y-85341284D01*
X103036294Y-85170000D01*
X102050000Y-85170000D01*
X101950000Y-85170000D01*
X101930000Y-85170000D01*
X101930000Y-85070000D01*
X101950000Y-85070000D01*
X101950000Y-84083634D01*
X102050000Y-84083634D01*
X102050000Y-85070000D01*
X103036294Y-85070000D01*
X103077512Y-84898716D01*
X103018860Y-84705356D01*
X102918390Y-84514554D01*
X102782627Y-84347018D01*
X102616788Y-84209188D01*
X102427246Y-84106360D01*
X102221285Y-84042485D01*
X102050000Y-84083634D01*
X101950000Y-84083634D01*
X101778715Y-84042485D01*
X101572754Y-84106360D01*
X101383212Y-84209188D01*
X101217373Y-84347018D01*
X101081610Y-84514554D01*
X101050000Y-84574584D01*
X101050000Y-83135958D01*
X101074237Y-83182320D01*
X101208758Y-83349630D01*
X101373214Y-83487625D01*
X101561342Y-83591049D01*
X101765975Y-83655962D01*
X101979320Y-83679893D01*
X101994678Y-83680000D01*
X102005322Y-83680000D01*
X102218980Y-83659051D01*
X102424499Y-83597001D01*
X102614053Y-83496213D01*
X102780420Y-83360528D01*
X102917263Y-83195112D01*
X103019371Y-83006267D01*
X103082855Y-82801186D01*
X103105295Y-82587679D01*
X103085838Y-82373881D01*
X103025224Y-82167933D01*
X102925763Y-81977680D01*
X102791242Y-81810370D01*
X102626786Y-81672375D01*
X102438658Y-81568951D01*
X102234025Y-81504038D01*
X102020680Y-81480107D01*
X102005322Y-81480000D01*
X101994678Y-81480000D01*
X101781020Y-81500949D01*
X101575501Y-81562999D01*
X101385947Y-81663787D01*
X101219580Y-81799472D01*
X101082737Y-81964888D01*
X101050000Y-82025434D01*
X101050000Y-80595958D01*
X101074237Y-80642320D01*
X101208758Y-80809630D01*
X101373214Y-80947625D01*
X101561342Y-81051049D01*
X101765975Y-81115962D01*
X101979320Y-81139893D01*
X101994678Y-81140000D01*
X102005322Y-81140000D01*
X102218980Y-81119051D01*
X102424499Y-81057001D01*
X102614053Y-80956213D01*
X102780420Y-80820528D01*
X102917263Y-80655112D01*
X103019371Y-80466267D01*
X103082855Y-80261186D01*
X103105295Y-80047679D01*
X103085838Y-79833881D01*
X103025224Y-79627933D01*
X102925763Y-79437680D01*
X102791242Y-79270370D01*
X102626786Y-79132375D01*
X102438658Y-79028951D01*
X102234025Y-78964038D01*
X102020680Y-78940107D01*
X102005322Y-78940000D01*
X101994678Y-78940000D01*
X101781020Y-78960949D01*
X101575501Y-79022999D01*
X101385947Y-79123787D01*
X101219580Y-79259472D01*
X101082737Y-79424888D01*
X101050000Y-79485434D01*
X101050000Y-78577733D01*
X101080015Y-78591263D01*
X101150000Y-78601209D01*
X102850000Y-78601209D01*
X102889811Y-78598034D01*
X102957336Y-78577123D01*
X103016362Y-78538228D01*
X103062214Y-78484429D01*
X103091263Y-78419985D01*
X103101209Y-78350000D01*
X103101209Y-78031539D01*
X103703768Y-78634098D01*
X103703768Y-83772365D01*
X103682522Y-83803394D01*
X103647757Y-83884507D01*
X103629409Y-83970828D01*
X103628177Y-84059069D01*
X103644108Y-84145869D01*
X103676594Y-84227921D01*
X103724400Y-84302101D01*
X103785703Y-84365582D01*
X103858169Y-84415947D01*
X103939038Y-84451278D01*
X104025228Y-84470228D01*
X104113459Y-84472076D01*
X104200367Y-84456752D01*
X104282644Y-84424839D01*
X104357156Y-84377552D01*
X104359836Y-84375000D01*
X107351035Y-84375000D01*
X107379401Y-84394715D01*
X107460270Y-84430046D01*
X107546460Y-84448996D01*
X107634691Y-84450844D01*
X107721599Y-84435520D01*
X107803876Y-84403607D01*
X107848953Y-84375000D01*
X110151035Y-84375000D01*
X110179401Y-84394715D01*
X110260270Y-84430046D01*
X110346460Y-84448996D01*
X110434691Y-84450844D01*
X110521599Y-84435520D01*
X110603876Y-84403607D01*
X110678388Y-84356320D01*
X110742296Y-84295462D01*
X110793166Y-84223349D01*
X110829060Y-84142729D01*
X110848611Y-84056673D01*
X110850019Y-83955875D01*
X110832878Y-83869306D01*
X110799249Y-83787716D01*
X110775000Y-83751219D01*
X110775000Y-83055330D01*
X112489046Y-81341284D01*
X117022488Y-81341284D01*
X117081140Y-81534644D01*
X117181610Y-81725446D01*
X117317373Y-81892982D01*
X117483212Y-82030812D01*
X117672754Y-82133640D01*
X117878715Y-82197515D01*
X118050000Y-82156366D01*
X118050000Y-81170000D01*
X117063706Y-81170000D01*
X117022488Y-81341284D01*
X112489046Y-81341284D01*
X112865165Y-80965165D01*
X112887129Y-80938425D01*
X112909418Y-80911863D01*
X112910370Y-80910132D01*
X112911619Y-80908611D01*
X112916924Y-80898716D01*
X117022488Y-80898716D01*
X117063706Y-81070000D01*
X118050000Y-81070000D01*
X118050000Y-80083634D01*
X117878715Y-80042485D01*
X117672754Y-80106360D01*
X117483212Y-80209188D01*
X117317373Y-80347018D01*
X117181610Y-80514554D01*
X117081140Y-80705356D01*
X117022488Y-80898716D01*
X112916924Y-80898716D01*
X112927977Y-80878104D01*
X112944676Y-80847728D01*
X112945272Y-80845849D01*
X112946204Y-80844111D01*
X112956339Y-80810960D01*
X112966805Y-80777967D01*
X112967025Y-80776010D01*
X112967602Y-80774121D01*
X112971109Y-80739598D01*
X112974963Y-80705236D01*
X112974990Y-80701386D01*
X112974998Y-80701309D01*
X112974991Y-80701238D01*
X112975000Y-80700000D01*
X112975000Y-78749101D01*
X112993166Y-78723349D01*
X113029060Y-78642729D01*
X113048611Y-78556673D01*
X113050019Y-78455875D01*
X113032878Y-78369306D01*
X112999249Y-78287716D01*
X112950412Y-78214211D01*
X112888228Y-78151592D01*
X112815066Y-78102243D01*
X112770020Y-78083308D01*
X114592044Y-76261284D01*
X117022488Y-76261284D01*
X117081140Y-76454644D01*
X117181610Y-76645446D01*
X117317373Y-76812982D01*
X117483212Y-76950812D01*
X117672754Y-77053640D01*
X117878715Y-77117515D01*
X118050000Y-77076366D01*
X118050000Y-76090000D01*
X117063706Y-76090000D01*
X117022488Y-76261284D01*
X114592044Y-76261284D01*
X115034612Y-75818716D01*
X117022488Y-75818716D01*
X117063706Y-75990000D01*
X118050000Y-75990000D01*
X118050000Y-75003634D01*
X117878715Y-74962485D01*
X117672754Y-75026360D01*
X117483212Y-75129188D01*
X117317373Y-75267018D01*
X117181610Y-75434554D01*
X117081140Y-75625356D01*
X117022488Y-75818716D01*
X115034612Y-75818716D01*
X116978328Y-73875000D01*
X116998791Y-73875000D01*
X116998791Y-74350000D01*
X116998791Y-74350000D01*
G37*
X116998791Y-74350000D02*
X117001966Y-74389811D01*
X117022877Y-74457336D01*
X117061772Y-74516362D01*
X117115571Y-74562214D01*
X117180015Y-74591263D01*
X117250000Y-74601209D01*
X118950000Y-74601209D01*
X118950000Y-75350158D01*
X118882627Y-75267018D01*
X118716788Y-75129188D01*
X118527246Y-75026360D01*
X118321285Y-74962485D01*
X118150000Y-75003634D01*
X118150000Y-75990000D01*
X118170000Y-75990000D01*
X118170000Y-76090000D01*
X118150000Y-76090000D01*
X118150000Y-77076366D01*
X118321285Y-77117515D01*
X118527246Y-77053640D01*
X118716788Y-76950812D01*
X118882627Y-76812982D01*
X118950000Y-76729842D01*
X118950000Y-77883450D01*
X118891242Y-77810370D01*
X118726786Y-77672375D01*
X118538658Y-77568951D01*
X118334025Y-77504038D01*
X118120680Y-77480107D01*
X118105322Y-77480000D01*
X118094678Y-77480000D01*
X117881020Y-77500949D01*
X117675501Y-77562999D01*
X117485947Y-77663787D01*
X117319580Y-77799472D01*
X117182737Y-77964888D01*
X117080629Y-78153733D01*
X117017145Y-78358814D01*
X116994705Y-78572321D01*
X117014162Y-78786119D01*
X117074776Y-78992067D01*
X117174237Y-79182320D01*
X117308758Y-79349630D01*
X117473214Y-79487625D01*
X117661342Y-79591049D01*
X117865975Y-79655962D01*
X118079320Y-79679893D01*
X118094678Y-79680000D01*
X118105322Y-79680000D01*
X118318980Y-79659051D01*
X118524499Y-79597001D01*
X118714053Y-79496213D01*
X118880420Y-79360528D01*
X118950000Y-79276420D01*
X118950000Y-80430158D01*
X118882627Y-80347018D01*
X118716788Y-80209188D01*
X118527246Y-80106360D01*
X118321285Y-80042485D01*
X118150000Y-80083634D01*
X118150000Y-81070000D01*
X118170000Y-81070000D01*
X118170000Y-81170000D01*
X118150000Y-81170000D01*
X118150000Y-82156366D01*
X118321285Y-82197515D01*
X118527246Y-82133640D01*
X118716788Y-82030812D01*
X118882627Y-81892982D01*
X118950000Y-81809842D01*
X118950000Y-82963450D01*
X118891242Y-82890370D01*
X118726786Y-82752375D01*
X118538658Y-82648951D01*
X118334025Y-82584038D01*
X118120680Y-82560107D01*
X118105322Y-82560000D01*
X118094678Y-82560000D01*
X117881020Y-82580949D01*
X117675501Y-82642999D01*
X117485947Y-82743787D01*
X117319580Y-82879472D01*
X117182737Y-83044888D01*
X117080629Y-83233733D01*
X117017145Y-83438814D01*
X116994705Y-83652321D01*
X117014162Y-83866119D01*
X117074776Y-84072067D01*
X117174237Y-84262320D01*
X117308758Y-84429630D01*
X117473214Y-84567625D01*
X117661342Y-84671049D01*
X117865975Y-84735962D01*
X118079320Y-84759893D01*
X118094678Y-84760000D01*
X118105322Y-84760000D01*
X118318980Y-84739051D01*
X118524499Y-84677001D01*
X118714053Y-84576213D01*
X118880420Y-84440528D01*
X118950000Y-84356420D01*
X118950000Y-85510158D01*
X118882627Y-85427018D01*
X118716788Y-85289188D01*
X118527246Y-85186360D01*
X118321285Y-85122485D01*
X118150000Y-85163634D01*
X118150000Y-86150000D01*
X118170000Y-86150000D01*
X118170000Y-86250000D01*
X118150000Y-86250000D01*
X118150000Y-87236366D01*
X118321285Y-87277515D01*
X118527246Y-87213640D01*
X118716788Y-87110812D01*
X118882627Y-86972982D01*
X118950000Y-86889842D01*
X118950000Y-88949925D01*
X101050000Y-88949925D01*
X101050000Y-86421284D01*
X117022488Y-86421284D01*
X117081140Y-86614644D01*
X117181610Y-86805446D01*
X117317373Y-86972982D01*
X117483212Y-87110812D01*
X117672754Y-87213640D01*
X117878715Y-87277515D01*
X118050000Y-87236366D01*
X118050000Y-86250000D01*
X117063706Y-86250000D01*
X117022488Y-86421284D01*
X101050000Y-86421284D01*
X101050000Y-85665416D01*
X101081610Y-85725446D01*
X101217373Y-85892982D01*
X101383212Y-86030812D01*
X101572754Y-86133640D01*
X101778715Y-86197515D01*
X101950000Y-86156366D01*
X101950000Y-85170000D01*
X102050000Y-85170000D01*
X102050000Y-86156366D01*
X102221285Y-86197515D01*
X102427246Y-86133640D01*
X102616788Y-86030812D01*
X102679470Y-85978716D01*
X117022488Y-85978716D01*
X117063706Y-86150000D01*
X118050000Y-86150000D01*
X118050000Y-85163634D01*
X117878715Y-85122485D01*
X117672754Y-85186360D01*
X117483212Y-85289188D01*
X117317373Y-85427018D01*
X117181610Y-85594554D01*
X117081140Y-85785356D01*
X117022488Y-85978716D01*
X102679470Y-85978716D01*
X102782627Y-85892982D01*
X102918390Y-85725446D01*
X103018860Y-85534644D01*
X103077512Y-85341284D01*
X103036294Y-85170000D01*
X102050000Y-85170000D01*
X101950000Y-85170000D01*
X101930000Y-85170000D01*
X101930000Y-85070000D01*
X101950000Y-85070000D01*
X101950000Y-84083634D01*
X102050000Y-84083634D01*
X102050000Y-85070000D01*
X103036294Y-85070000D01*
X103077512Y-84898716D01*
X103018860Y-84705356D01*
X102918390Y-84514554D01*
X102782627Y-84347018D01*
X102616788Y-84209188D01*
X102427246Y-84106360D01*
X102221285Y-84042485D01*
X102050000Y-84083634D01*
X101950000Y-84083634D01*
X101778715Y-84042485D01*
X101572754Y-84106360D01*
X101383212Y-84209188D01*
X101217373Y-84347018D01*
X101081610Y-84514554D01*
X101050000Y-84574584D01*
X101050000Y-83135958D01*
X101074237Y-83182320D01*
X101208758Y-83349630D01*
X101373214Y-83487625D01*
X101561342Y-83591049D01*
X101765975Y-83655962D01*
X101979320Y-83679893D01*
X101994678Y-83680000D01*
X102005322Y-83680000D01*
X102218980Y-83659051D01*
X102424499Y-83597001D01*
X102614053Y-83496213D01*
X102780420Y-83360528D01*
X102917263Y-83195112D01*
X103019371Y-83006267D01*
X103082855Y-82801186D01*
X103105295Y-82587679D01*
X103085838Y-82373881D01*
X103025224Y-82167933D01*
X102925763Y-81977680D01*
X102791242Y-81810370D01*
X102626786Y-81672375D01*
X102438658Y-81568951D01*
X102234025Y-81504038D01*
X102020680Y-81480107D01*
X102005322Y-81480000D01*
X101994678Y-81480000D01*
X101781020Y-81500949D01*
X101575501Y-81562999D01*
X101385947Y-81663787D01*
X101219580Y-81799472D01*
X101082737Y-81964888D01*
X101050000Y-82025434D01*
X101050000Y-80595958D01*
X101074237Y-80642320D01*
X101208758Y-80809630D01*
X101373214Y-80947625D01*
X101561342Y-81051049D01*
X101765975Y-81115962D01*
X101979320Y-81139893D01*
X101994678Y-81140000D01*
X102005322Y-81140000D01*
X102218980Y-81119051D01*
X102424499Y-81057001D01*
X102614053Y-80956213D01*
X102780420Y-80820528D01*
X102917263Y-80655112D01*
X103019371Y-80466267D01*
X103082855Y-80261186D01*
X103105295Y-80047679D01*
X103085838Y-79833881D01*
X103025224Y-79627933D01*
X102925763Y-79437680D01*
X102791242Y-79270370D01*
X102626786Y-79132375D01*
X102438658Y-79028951D01*
X102234025Y-78964038D01*
X102020680Y-78940107D01*
X102005322Y-78940000D01*
X101994678Y-78940000D01*
X101781020Y-78960949D01*
X101575501Y-79022999D01*
X101385947Y-79123787D01*
X101219580Y-79259472D01*
X101082737Y-79424888D01*
X101050000Y-79485434D01*
X101050000Y-78577733D01*
X101080015Y-78591263D01*
X101150000Y-78601209D01*
X102850000Y-78601209D01*
X102889811Y-78598034D01*
X102957336Y-78577123D01*
X103016362Y-78538228D01*
X103062214Y-78484429D01*
X103091263Y-78419985D01*
X103101209Y-78350000D01*
X103101209Y-78031539D01*
X103703768Y-78634098D01*
X103703768Y-83772365D01*
X103682522Y-83803394D01*
X103647757Y-83884507D01*
X103629409Y-83970828D01*
X103628177Y-84059069D01*
X103644108Y-84145869D01*
X103676594Y-84227921D01*
X103724400Y-84302101D01*
X103785703Y-84365582D01*
X103858169Y-84415947D01*
X103939038Y-84451278D01*
X104025228Y-84470228D01*
X104113459Y-84472076D01*
X104200367Y-84456752D01*
X104282644Y-84424839D01*
X104357156Y-84377552D01*
X104359836Y-84375000D01*
X107351035Y-84375000D01*
X107379401Y-84394715D01*
X107460270Y-84430046D01*
X107546460Y-84448996D01*
X107634691Y-84450844D01*
X107721599Y-84435520D01*
X107803876Y-84403607D01*
X107848953Y-84375000D01*
X110151035Y-84375000D01*
X110179401Y-84394715D01*
X110260270Y-84430046D01*
X110346460Y-84448996D01*
X110434691Y-84450844D01*
X110521599Y-84435520D01*
X110603876Y-84403607D01*
X110678388Y-84356320D01*
X110742296Y-84295462D01*
X110793166Y-84223349D01*
X110829060Y-84142729D01*
X110848611Y-84056673D01*
X110850019Y-83955875D01*
X110832878Y-83869306D01*
X110799249Y-83787716D01*
X110775000Y-83751219D01*
X110775000Y-83055330D01*
X112489046Y-81341284D01*
X117022488Y-81341284D01*
X117081140Y-81534644D01*
X117181610Y-81725446D01*
X117317373Y-81892982D01*
X117483212Y-82030812D01*
X117672754Y-82133640D01*
X117878715Y-82197515D01*
X118050000Y-82156366D01*
X118050000Y-81170000D01*
X117063706Y-81170000D01*
X117022488Y-81341284D01*
X112489046Y-81341284D01*
X112865165Y-80965165D01*
X112887129Y-80938425D01*
X112909418Y-80911863D01*
X112910370Y-80910132D01*
X112911619Y-80908611D01*
X112916924Y-80898716D01*
X117022488Y-80898716D01*
X117063706Y-81070000D01*
X118050000Y-81070000D01*
X118050000Y-80083634D01*
X117878715Y-80042485D01*
X117672754Y-80106360D01*
X117483212Y-80209188D01*
X117317373Y-80347018D01*
X117181610Y-80514554D01*
X117081140Y-80705356D01*
X117022488Y-80898716D01*
X112916924Y-80898716D01*
X112927977Y-80878104D01*
X112944676Y-80847728D01*
X112945272Y-80845849D01*
X112946204Y-80844111D01*
X112956339Y-80810960D01*
X112966805Y-80777967D01*
X112967025Y-80776010D01*
X112967602Y-80774121D01*
X112971109Y-80739598D01*
X112974963Y-80705236D01*
X112974990Y-80701386D01*
X112974998Y-80701309D01*
X112974991Y-80701238D01*
X112975000Y-80700000D01*
X112975000Y-78749101D01*
X112993166Y-78723349D01*
X113029060Y-78642729D01*
X113048611Y-78556673D01*
X113050019Y-78455875D01*
X113032878Y-78369306D01*
X112999249Y-78287716D01*
X112950412Y-78214211D01*
X112888228Y-78151592D01*
X112815066Y-78102243D01*
X112770020Y-78083308D01*
X114592044Y-76261284D01*
X117022488Y-76261284D01*
X117081140Y-76454644D01*
X117181610Y-76645446D01*
X117317373Y-76812982D01*
X117483212Y-76950812D01*
X117672754Y-77053640D01*
X117878715Y-77117515D01*
X118050000Y-77076366D01*
X118050000Y-76090000D01*
X117063706Y-76090000D01*
X117022488Y-76261284D01*
X114592044Y-76261284D01*
X115034612Y-75818716D01*
X117022488Y-75818716D01*
X117063706Y-75990000D01*
X118050000Y-75990000D01*
X118050000Y-75003634D01*
X117878715Y-74962485D01*
X117672754Y-75026360D01*
X117483212Y-75129188D01*
X117317373Y-75267018D01*
X117181610Y-75434554D01*
X117081140Y-75625356D01*
X117022488Y-75818716D01*
X115034612Y-75818716D01*
X116978328Y-73875000D01*
X116998791Y-73875000D01*
X116998791Y-74350000D01*
G36*
X105850000Y-72547500D02*
X105912500Y-72610000D01*
X106950000Y-72610000D01*
X106950000Y-72590000D01*
X107050000Y-72590000D01*
X107050000Y-72610000D01*
X108087500Y-72610000D01*
X108150000Y-72547500D01*
X108150000Y-71049925D01*
X111850000Y-71049925D01*
X111850000Y-72547500D01*
X111912500Y-72610000D01*
X112950000Y-72610000D01*
X112950000Y-72590000D01*
X113050000Y-72590000D01*
X113050000Y-72610000D01*
X114087500Y-72610000D01*
X114150000Y-72547500D01*
X114150000Y-71049925D01*
X118950000Y-71049925D01*
X118950000Y-72398791D01*
X117250000Y-72398791D01*
X117210189Y-72401966D01*
X117142664Y-72422877D01*
X117083638Y-72461772D01*
X117037786Y-72515571D01*
X117008737Y-72580015D01*
X116998791Y-72650000D01*
X116998791Y-73125000D01*
X116822998Y-73125000D01*
X116788529Y-73128380D01*
X116754016Y-73131399D01*
X116752120Y-73131950D01*
X116750160Y-73132142D01*
X116717020Y-73142148D01*
X116683734Y-73151818D01*
X116681983Y-73152726D01*
X116680097Y-73153295D01*
X116649526Y-73169550D01*
X116618758Y-73185499D01*
X116617217Y-73186730D01*
X116615476Y-73187655D01*
X116588622Y-73209556D01*
X116561561Y-73231159D01*
X116558818Y-73233863D01*
X116558760Y-73233911D01*
X116558715Y-73233965D01*
X116557833Y-73234835D01*
X110834835Y-78957833D01*
X110812871Y-78984573D01*
X110790582Y-79011135D01*
X110789630Y-79012866D01*
X110788381Y-79014387D01*
X110772023Y-79044894D01*
X110755324Y-79075270D01*
X110754728Y-79077149D01*
X110753796Y-79078887D01*
X110743674Y-79111997D01*
X110733195Y-79145031D01*
X110732975Y-79146993D01*
X110732399Y-79148877D01*
X110728897Y-79183351D01*
X110725037Y-79217762D01*
X110725010Y-79221612D01*
X110725002Y-79221689D01*
X110725009Y-79221760D01*
X110725000Y-79222998D01*
X110725000Y-80351133D01*
X110703754Y-80382162D01*
X110668989Y-80463275D01*
X110650641Y-80549596D01*
X110649409Y-80637837D01*
X110665340Y-80724637D01*
X110697826Y-80806689D01*
X110745632Y-80880869D01*
X110806935Y-80944350D01*
X110879401Y-80994715D01*
X110960270Y-81030046D01*
X111046460Y-81048996D01*
X111134691Y-81050844D01*
X111221599Y-81035520D01*
X111303876Y-81003607D01*
X111378388Y-80956320D01*
X111442296Y-80895462D01*
X111493166Y-80823349D01*
X111529060Y-80742729D01*
X111548611Y-80656673D01*
X111550019Y-80555875D01*
X111532878Y-80469306D01*
X111499249Y-80387716D01*
X111475000Y-80351219D01*
X111475000Y-79378328D01*
X112183308Y-78670020D01*
X112197826Y-78706689D01*
X112225000Y-78748855D01*
X112225000Y-80544670D01*
X110236128Y-82533542D01*
X110236128Y-79200000D01*
X110232709Y-79181827D01*
X110221968Y-79165136D01*
X110205581Y-79153939D01*
X110186128Y-79150000D01*
X105986128Y-79150000D01*
X105967955Y-79153419D01*
X105951264Y-79164160D01*
X105940067Y-79180547D01*
X105936128Y-79200000D01*
X105936128Y-82800000D01*
X105939547Y-82818173D01*
X105950288Y-82834864D01*
X105966675Y-82846061D01*
X105986128Y-82850000D01*
X110029949Y-82850000D01*
X110028897Y-82860353D01*
X110025037Y-82894764D01*
X110025010Y-82898614D01*
X110025002Y-82898691D01*
X110025009Y-82898762D01*
X110025000Y-82900000D01*
X110025000Y-83625000D01*
X107848804Y-83625000D01*
X107815066Y-83602243D01*
X107733712Y-83568045D01*
X107647265Y-83550300D01*
X107559018Y-83549684D01*
X107472332Y-83566220D01*
X107390508Y-83599279D01*
X107351202Y-83625000D01*
X104453768Y-83625000D01*
X104453768Y-78478768D01*
X104450388Y-78444295D01*
X104447369Y-78409786D01*
X104446818Y-78407890D01*
X104446626Y-78405930D01*
X104436616Y-78372776D01*
X104426950Y-78339505D01*
X104426043Y-78337756D01*
X104425473Y-78335867D01*
X104409197Y-78305257D01*
X104393269Y-78274529D01*
X104392040Y-78272990D01*
X104391113Y-78271246D01*
X104369174Y-78244346D01*
X104347609Y-78217332D01*
X104344906Y-78214590D01*
X104344857Y-78214530D01*
X104344802Y-78214484D01*
X104343933Y-78213603D01*
X103365165Y-77234835D01*
X103338425Y-77212871D01*
X103311863Y-77190582D01*
X103310132Y-77189630D01*
X103308611Y-77188381D01*
X103278104Y-77172023D01*
X103247728Y-77155324D01*
X103245849Y-77154728D01*
X103244111Y-77153796D01*
X103211001Y-77143674D01*
X103177967Y-77133195D01*
X103176005Y-77132975D01*
X103174121Y-77132399D01*
X103139647Y-77128897D01*
X103105236Y-77125037D01*
X103101386Y-77125010D01*
X103101309Y-77125002D01*
X103101238Y-77125009D01*
X103101209Y-77125009D01*
X103101209Y-76650000D01*
X103098034Y-76610189D01*
X103077123Y-76542664D01*
X103038228Y-76483638D01*
X102984429Y-76437786D01*
X102919985Y-76408737D01*
X102850000Y-76398791D01*
X101150000Y-76398791D01*
X101110189Y-76401966D01*
X101050000Y-76420605D01*
X101050000Y-72613512D01*
X101148226Y-72613512D01*
X101196018Y-72873911D01*
X101293478Y-73120068D01*
X101436895Y-73342607D01*
X101620805Y-73533051D01*
X101838203Y-73684147D01*
X102080809Y-73790139D01*
X102339381Y-73846989D01*
X102604072Y-73852534D01*
X102864798Y-73806561D01*
X103111630Y-73710821D01*
X103335164Y-73568962D01*
X103526888Y-73386386D01*
X103679498Y-73170048D01*
X103787181Y-72928188D01*
X103822552Y-72772500D01*
X105850000Y-72772500D01*
X105850000Y-75224623D01*
X105859607Y-75272922D01*
X105878453Y-75318419D01*
X105905812Y-75359366D01*
X105940634Y-75394188D01*
X105981580Y-75421547D01*
X106027078Y-75440393D01*
X106075377Y-75450000D01*
X106887500Y-75450000D01*
X106950000Y-75387500D01*
X106950000Y-72710000D01*
X107050000Y-72710000D01*
X107050000Y-75387500D01*
X107112500Y-75450000D01*
X107924623Y-75450000D01*
X107972922Y-75440393D01*
X108018420Y-75421547D01*
X108059366Y-75394188D01*
X108094188Y-75359366D01*
X108121547Y-75318419D01*
X108140393Y-75272922D01*
X108150000Y-75224623D01*
X108150000Y-72772500D01*
X111850000Y-72772500D01*
X111850000Y-75224623D01*
X111859607Y-75272922D01*
X111878453Y-75318419D01*
X111905812Y-75359366D01*
X111940634Y-75394188D01*
X111981580Y-75421547D01*
X112027078Y-75440393D01*
X112075377Y-75450000D01*
X112887500Y-75450000D01*
X112950000Y-75387500D01*
X112950000Y-72710000D01*
X113050000Y-72710000D01*
X113050000Y-75387500D01*
X113112500Y-75450000D01*
X113924623Y-75450000D01*
X113972922Y-75440393D01*
X114018420Y-75421547D01*
X114059366Y-75394188D01*
X114094188Y-75359366D01*
X114121547Y-75318419D01*
X114140393Y-75272922D01*
X114150000Y-75224623D01*
X114150000Y-72772500D01*
X114087500Y-72710000D01*
X113050000Y-72710000D01*
X112950000Y-72710000D01*
X111912500Y-72710000D01*
X111850000Y-72772500D01*
X108150000Y-72772500D01*
X108087500Y-72710000D01*
X107050000Y-72710000D01*
X106950000Y-72710000D01*
X105912500Y-72710000D01*
X105850000Y-72772500D01*
X103822552Y-72772500D01*
X103845835Y-72670019D01*
X103850058Y-72367626D01*
X103798635Y-72107919D01*
X103697747Y-71863147D01*
X103551237Y-71642632D01*
X103364686Y-71454774D01*
X103145199Y-71306729D01*
X102901137Y-71204134D01*
X102641796Y-71150899D01*
X102377054Y-71149051D01*
X102116995Y-71198660D01*
X101871524Y-71297836D01*
X101649992Y-71442803D01*
X101460836Y-71628038D01*
X101311262Y-71846486D01*
X101206966Y-72089826D01*
X101151922Y-72348789D01*
X101148226Y-72613512D01*
X101050000Y-72613512D01*
X101050000Y-71049925D01*
X105850000Y-71049925D01*
X105850000Y-72547500D01*
X105850000Y-72547500D01*
G37*
X105850000Y-72547500D02*
X105912500Y-72610000D01*
X106950000Y-72610000D01*
X106950000Y-72590000D01*
X107050000Y-72590000D01*
X107050000Y-72610000D01*
X108087500Y-72610000D01*
X108150000Y-72547500D01*
X108150000Y-71049925D01*
X111850000Y-71049925D01*
X111850000Y-72547500D01*
X111912500Y-72610000D01*
X112950000Y-72610000D01*
X112950000Y-72590000D01*
X113050000Y-72590000D01*
X113050000Y-72610000D01*
X114087500Y-72610000D01*
X114150000Y-72547500D01*
X114150000Y-71049925D01*
X118950000Y-71049925D01*
X118950000Y-72398791D01*
X117250000Y-72398791D01*
X117210189Y-72401966D01*
X117142664Y-72422877D01*
X117083638Y-72461772D01*
X117037786Y-72515571D01*
X117008737Y-72580015D01*
X116998791Y-72650000D01*
X116998791Y-73125000D01*
X116822998Y-73125000D01*
X116788529Y-73128380D01*
X116754016Y-73131399D01*
X116752120Y-73131950D01*
X116750160Y-73132142D01*
X116717020Y-73142148D01*
X116683734Y-73151818D01*
X116681983Y-73152726D01*
X116680097Y-73153295D01*
X116649526Y-73169550D01*
X116618758Y-73185499D01*
X116617217Y-73186730D01*
X116615476Y-73187655D01*
X116588622Y-73209556D01*
X116561561Y-73231159D01*
X116558818Y-73233863D01*
X116558760Y-73233911D01*
X116558715Y-73233965D01*
X116557833Y-73234835D01*
X110834835Y-78957833D01*
X110812871Y-78984573D01*
X110790582Y-79011135D01*
X110789630Y-79012866D01*
X110788381Y-79014387D01*
X110772023Y-79044894D01*
X110755324Y-79075270D01*
X110754728Y-79077149D01*
X110753796Y-79078887D01*
X110743674Y-79111997D01*
X110733195Y-79145031D01*
X110732975Y-79146993D01*
X110732399Y-79148877D01*
X110728897Y-79183351D01*
X110725037Y-79217762D01*
X110725010Y-79221612D01*
X110725002Y-79221689D01*
X110725009Y-79221760D01*
X110725000Y-79222998D01*
X110725000Y-80351133D01*
X110703754Y-80382162D01*
X110668989Y-80463275D01*
X110650641Y-80549596D01*
X110649409Y-80637837D01*
X110665340Y-80724637D01*
X110697826Y-80806689D01*
X110745632Y-80880869D01*
X110806935Y-80944350D01*
X110879401Y-80994715D01*
X110960270Y-81030046D01*
X111046460Y-81048996D01*
X111134691Y-81050844D01*
X111221599Y-81035520D01*
X111303876Y-81003607D01*
X111378388Y-80956320D01*
X111442296Y-80895462D01*
X111493166Y-80823349D01*
X111529060Y-80742729D01*
X111548611Y-80656673D01*
X111550019Y-80555875D01*
X111532878Y-80469306D01*
X111499249Y-80387716D01*
X111475000Y-80351219D01*
X111475000Y-79378328D01*
X112183308Y-78670020D01*
X112197826Y-78706689D01*
X112225000Y-78748855D01*
X112225000Y-80544670D01*
X110236128Y-82533542D01*
X110236128Y-79200000D01*
X110232709Y-79181827D01*
X110221968Y-79165136D01*
X110205581Y-79153939D01*
X110186128Y-79150000D01*
X105986128Y-79150000D01*
X105967955Y-79153419D01*
X105951264Y-79164160D01*
X105940067Y-79180547D01*
X105936128Y-79200000D01*
X105936128Y-82800000D01*
X105939547Y-82818173D01*
X105950288Y-82834864D01*
X105966675Y-82846061D01*
X105986128Y-82850000D01*
X110029949Y-82850000D01*
X110028897Y-82860353D01*
X110025037Y-82894764D01*
X110025010Y-82898614D01*
X110025002Y-82898691D01*
X110025009Y-82898762D01*
X110025000Y-82900000D01*
X110025000Y-83625000D01*
X107848804Y-83625000D01*
X107815066Y-83602243D01*
X107733712Y-83568045D01*
X107647265Y-83550300D01*
X107559018Y-83549684D01*
X107472332Y-83566220D01*
X107390508Y-83599279D01*
X107351202Y-83625000D01*
X104453768Y-83625000D01*
X104453768Y-78478768D01*
X104450388Y-78444295D01*
X104447369Y-78409786D01*
X104446818Y-78407890D01*
X104446626Y-78405930D01*
X104436616Y-78372776D01*
X104426950Y-78339505D01*
X104426043Y-78337756D01*
X104425473Y-78335867D01*
X104409197Y-78305257D01*
X104393269Y-78274529D01*
X104392040Y-78272990D01*
X104391113Y-78271246D01*
X104369174Y-78244346D01*
X104347609Y-78217332D01*
X104344906Y-78214590D01*
X104344857Y-78214530D01*
X104344802Y-78214484D01*
X104343933Y-78213603D01*
X103365165Y-77234835D01*
X103338425Y-77212871D01*
X103311863Y-77190582D01*
X103310132Y-77189630D01*
X103308611Y-77188381D01*
X103278104Y-77172023D01*
X103247728Y-77155324D01*
X103245849Y-77154728D01*
X103244111Y-77153796D01*
X103211001Y-77143674D01*
X103177967Y-77133195D01*
X103176005Y-77132975D01*
X103174121Y-77132399D01*
X103139647Y-77128897D01*
X103105236Y-77125037D01*
X103101386Y-77125010D01*
X103101309Y-77125002D01*
X103101238Y-77125009D01*
X103101209Y-77125009D01*
X103101209Y-76650000D01*
X103098034Y-76610189D01*
X103077123Y-76542664D01*
X103038228Y-76483638D01*
X102984429Y-76437786D01*
X102919985Y-76408737D01*
X102850000Y-76398791D01*
X101150000Y-76398791D01*
X101110189Y-76401966D01*
X101050000Y-76420605D01*
X101050000Y-72613512D01*
X101148226Y-72613512D01*
X101196018Y-72873911D01*
X101293478Y-73120068D01*
X101436895Y-73342607D01*
X101620805Y-73533051D01*
X101838203Y-73684147D01*
X102080809Y-73790139D01*
X102339381Y-73846989D01*
X102604072Y-73852534D01*
X102864798Y-73806561D01*
X103111630Y-73710821D01*
X103335164Y-73568962D01*
X103526888Y-73386386D01*
X103679498Y-73170048D01*
X103787181Y-72928188D01*
X103822552Y-72772500D01*
X105850000Y-72772500D01*
X105850000Y-75224623D01*
X105859607Y-75272922D01*
X105878453Y-75318419D01*
X105905812Y-75359366D01*
X105940634Y-75394188D01*
X105981580Y-75421547D01*
X106027078Y-75440393D01*
X106075377Y-75450000D01*
X106887500Y-75450000D01*
X106950000Y-75387500D01*
X106950000Y-72710000D01*
X107050000Y-72710000D01*
X107050000Y-75387500D01*
X107112500Y-75450000D01*
X107924623Y-75450000D01*
X107972922Y-75440393D01*
X108018420Y-75421547D01*
X108059366Y-75394188D01*
X108094188Y-75359366D01*
X108121547Y-75318419D01*
X108140393Y-75272922D01*
X108150000Y-75224623D01*
X108150000Y-72772500D01*
X111850000Y-72772500D01*
X111850000Y-75224623D01*
X111859607Y-75272922D01*
X111878453Y-75318419D01*
X111905812Y-75359366D01*
X111940634Y-75394188D01*
X111981580Y-75421547D01*
X112027078Y-75440393D01*
X112075377Y-75450000D01*
X112887500Y-75450000D01*
X112950000Y-75387500D01*
X112950000Y-72710000D01*
X113050000Y-72710000D01*
X113050000Y-75387500D01*
X113112500Y-75450000D01*
X113924623Y-75450000D01*
X113972922Y-75440393D01*
X114018420Y-75421547D01*
X114059366Y-75394188D01*
X114094188Y-75359366D01*
X114121547Y-75318419D01*
X114140393Y-75272922D01*
X114150000Y-75224623D01*
X114150000Y-72772500D01*
X114087500Y-72710000D01*
X113050000Y-72710000D01*
X112950000Y-72710000D01*
X111912500Y-72710000D01*
X111850000Y-72772500D01*
X108150000Y-72772500D01*
X108087500Y-72710000D01*
X107050000Y-72710000D01*
X106950000Y-72710000D01*
X105912500Y-72710000D01*
X105850000Y-72772500D01*
X103822552Y-72772500D01*
X103845835Y-72670019D01*
X103850058Y-72367626D01*
X103798635Y-72107919D01*
X103697747Y-71863147D01*
X103551237Y-71642632D01*
X103364686Y-71454774D01*
X103145199Y-71306729D01*
X102901137Y-71204134D01*
X102641796Y-71150899D01*
X102377054Y-71149051D01*
X102116995Y-71198660D01*
X101871524Y-71297836D01*
X101649992Y-71442803D01*
X101460836Y-71628038D01*
X101311262Y-71846486D01*
X101206966Y-72089826D01*
X101151922Y-72348789D01*
X101148226Y-72613512D01*
X101050000Y-72613512D01*
X101050000Y-71049925D01*
X105850000Y-71049925D01*
X105850000Y-72547500D01*
M02*
